<svg width="1024.6999999999998px" height="138.830029296875px" xmlns="http://www.w3.org/2000/svg" viewBox="-262.3499999999999 5.584985351562494 1024.6999999999998 138.830029296875" style="background: rgba(0, 0, 0, 0);" preserveAspectRatio="xMidYMid"><defs><filter id="editing-vr"><feFlood flood-color="#f00" flood-opacity="0.7" result="c1"></feFlood><feFlood flood-color="#00f" flood-opacity="0.7" result="c3"></feFlood><feComposite operator="in" in="c1" in2="SourceAlpha" result="text-c1"></feComposite><feComposite operator="in" in="c3" in2="SourceAlpha" result="text-c3"></feComposite><feOffset in="text-c1" dx="5" dy="-1" result="text1"></feOffset><feOffset in="text-c3" dx="-5" dy="1" result="text3"></feOffset><feBlend in="SourceGraphic" in2="text1" mode="multiply" result="text4"></feBlend><feBlend in="text4" in2="text3" mode="multiply"></feBlend></filter></defs><g filter="url(#editing-vr)"><g transform="translate(-121.04498386383057, 106.40500068664551)"><path d="M5.78-44.94L19.84-44.94L19.84-44.94Q22.94-44.94 25.63-44.27L25.63-44.27L25.63-44.27Q28.31-43.59 30.30-42.08L30.30-42.08L30.30-42.08Q32.28-40.56 33.42-38.13L33.42-38.13L33.42-38.13Q34.56-35.69 34.56-32.19L34.56-32.19L34.56-32.19Q34.56-28.28 33.25-25.81L33.25-25.81L33.25-25.81Q31.94-23.34 29.70-21.91L29.70-21.91L29.70-21.91Q27.47-20.47 24.52-19.94L24.52-19.94L24.52-19.94Q21.56-19.41 18.28-19.41L18.28-19.41L18.28-19.41Q16.50-19.41 14.80-19.53L14.80-19.53L14.80-19.53Q13.09-19.66 11.59-19.81L11.59-19.81L11.59 0L5.78 0L5.78-44.94ZM11.59-40.25L11.59-24.50L11.59-24.50Q13.09-24.31 14.73-24.20L14.73-24.20L14.73-24.20Q16.38-24.09 18.03-24.09L18.03-24.09L18.03-24.09Q20.41-24.09 22.39-24.39L22.39-24.39L22.39-24.39Q24.38-24.69 25.78-25.56L25.78-25.56L25.78-25.56Q27.19-26.44 27.97-28.03L27.97-28.03L27.97-28.03Q28.75-29.63 28.75-32.19L28.75-32.19L28.75-32.19Q28.75-34.53 28.09-36.08L28.09-36.08L28.09-36.08Q27.44-37.63 26.27-38.56L26.27-38.56L26.27-38.56Q25.09-39.50 23.45-39.88L23.45-39.88L23.45-39.88Q21.81-40.25 19.84-40.25L19.84-40.25L11.59-40.25ZM45.25-26.75L45.25-26.75L43.88-31.13L43.88-31.13Q49.13-33.22 54.88-33.22L54.88-33.22L54.88-33.22Q59.91-33.22 62.56-31.53L62.56-31.53L62.56-31.53Q65.59-29.59 65.59-24.94L65.59-24.94L65.59-12.16L65.59-12.16Q65.59-9.59 65.66-6.91L65.66-6.91L65.66-6.91Q65.69-5.31 65.97-3.59L65.97-3.59L65.97-3.59Q66.22-1.97 66.63-0.50L66.63-0.50L61.50 0.63L61.50 0.63Q60.78-1.47 60.59-4.06L60.59-4.06L59.97-4.13L59.97-4.13Q56.09 0.75 50.09 0.75L50.09 0.75L50.09 0.75Q45.72 0.75 43.06-1.67L43.06-1.67L43.06-1.67Q40.41-4.09 40.41-8.50L40.41-8.50L40.41-8.50Q40.41-11.78 41.86-13.88L41.86-13.88L41.86-13.88Q43.31-15.97 45.97-17.41L45.97-17.41L45.97-17.41Q50.16-19.69 57.69-19.69L57.69-19.69L57.69-19.69Q58.69-19.69 60.38-19.63L60.38-19.63L60.38-24.38L60.38-24.38Q60.38-26.63 59-27.63L59-27.63L59-27.63Q57.63-28.63 54.69-28.63L54.69-28.63L54.69-28.63Q50.41-28.63 45.25-26.75ZM60.38-9.13L60.38-9.13L60.38-15.69L60.38-15.69Q59.53-15.75 57.91-15.75L57.91-15.75L57.91-15.75Q55.16-15.75 52.84-15.28L52.84-15.28L52.84-15.28Q49.41-14.59 47.52-13.11L47.52-13.11L47.52-13.11Q45.63-11.63 45.63-8.84L45.63-8.84L45.63-8.84Q45.63-3.84 51.06-3.84L51.06-3.84L51.06-3.84Q53.88-3.84 56.31-5.34L56.31-5.34L56.31-5.34Q58.31-6.59 60.38-9.13ZM81.44-24.97L81.72-24.97L81.72-24.97Q82.69-26.91 83.80-28.47L83.80-28.47L83.80-28.47Q84.91-30.03 86.25-31.13L86.25-31.13L86.25-31.13Q87.47-32.19 88.94-32.70L88.94-32.70L88.94-32.70Q90.41-33.22 92.28-33.22L92.28-33.22L92.28-33.22Q92.91-33.22 93.73-33.16L93.73-33.16L93.73-33.16Q94.56-33.09 95.31-32.94L95.31-32.94L95.31-32.94Q95.19-31.38 95.02-30L95.02-30L95.02-30Q94.84-28.63 94.56-27.22L94.56-27.22L94.56-27.22Q93-27.50 91.70-27.63L91.70-27.63L91.70-27.63Q90.41-27.75 89.25-27.56L89.25-27.56L89.25-27.56Q87.88-27.31 86.86-26.64L86.86-26.64L86.86-26.64Q85.84-25.97 84.98-24.86L84.98-24.86L84.98-24.86Q84.13-23.75 83.31-22.20L83.31-22.20L83.31-22.20Q82.50-20.66 81.53-18.66L81.53-18.66L81.53 0L76.16 0L76.16-20.03L76.16-20.03Q76.16-22 76.11-23.50L76.11-23.50L76.11-23.50Q76.06-25 75.92-26.36L75.92-26.36L75.92-26.36Q75.78-27.72 75.50-29.05L75.50-29.05L75.50-29.05Q75.22-30.38 74.75-32L74.75-32L74.75-32Q76.06-32.34 77.33-32.63L77.33-32.63L77.33-32.63Q78.59-32.91 79.91-33.16L79.91-33.16L79.91-33.16Q80.34-31.91 80.61-30.94L80.61-30.94L80.61-30.94Q80.88-29.97 81.03-29.05L81.03-29.05L81.03-29.05Q81.19-28.13 81.27-27.17L81.27-27.17L81.27-27.17Q81.34-26.22 81.44-24.97L81.44-24.97ZM104.78-32.50L104.78-39.94L110.16-39.94L110.16-32.50L121.09-32.50L121.09-27.97L110.16-27.97L110.16-9.31L110.16-9.31Q110.16-7.44 110.27-6.45L110.27-6.45L110.27-6.45Q110.38-5.47 110.81-4.91L110.81-4.91L110.81-4.91Q111.63-3.78 114.09-3.78L114.09-3.78L114.09-3.78Q115.47-3.78 116.75-4.06L116.75-4.06L116.75-4.06Q118.06-4.34 119.16-4.69L119.16-4.69L119.16-4.69Q120.03-2.78 120.75-0.50L120.75-0.50L120.75-0.50Q117.06 0.75 113.31 0.75L113.31 0.75L113.31 0.75Q110.59 0.75 108.95 0.14L108.95 0.14L108.95 0.14Q107.31-0.47 106.38-1.84L106.38-1.84L106.38-1.84Q105.41-3.28 105.09-5.28L105.09-5.28L105.09-5.28Q104.78-7.28 104.78-10.81L104.78-10.81L104.78-27.97L100.09-27.97L100.09-32.50L104.78-32.50ZM149.75-32.50L155.13-32.50L155.13 0.72L155.13 0.72Q155.13 3.81 154.11 6.06L154.11 6.06L154.11 6.06Q153.09 8.31 151.30 9.78L151.30 9.78L151.30 9.78Q149.50 11.25 147.03 11.95L147.03 11.95L147.03 11.95Q144.56 12.66 141.66 12.66L141.66 12.66L141.66 12.66Q139.03 12.66 136.38 12.20L136.38 12.20L136.38 12.20Q133.72 11.75 131.31 10.94L131.31 10.94L131.31 10.94Q131.72 9.84 132.16 8.81L132.16 8.81L132.16 8.81Q132.59 7.78 133.03 6.75L133.03 6.75L133.03 6.75Q133.78 7 134.83 7.28L134.83 7.28L134.83 7.28Q135.88 7.56 137.05 7.80L137.05 7.80L137.05 7.80Q138.22 8.03 139.45 8.17L139.45 8.17L139.45 8.17Q140.69 8.31 141.84 8.31L141.84 8.31L141.84 8.31Q143.66 8.31 145.13 7.83L145.13 7.83L145.13 7.83Q146.59 7.34 147.63 6.38L147.63 6.38L147.63 6.38Q148.66 5.41 149.20 3.98L149.20 3.98L149.20 3.98Q149.75 2.56 149.75 0.72L149.75 0.72L149.75-6.34L149.16-6.34L149.16-6.34Q148.34-4.88 147.28-3.58L147.28-3.58L147.28-3.58Q146.22-2.28 144.94-1.31L144.94-1.31L144.94-1.31Q143.66-0.34 142.17 0.20L142.17 0.20L142.17 0.20Q140.69 0.75 139.03 0.75L139.03 0.75L139.03 0.75Q136.75 0.75 135.06 0.23L135.06 0.23L135.06 0.23Q133.38-0.28 132.17-1.30L132.17-1.30L132.17-1.30Q130.97-2.31 130.20-3.83L130.20-3.83L130.20-3.83Q129.44-5.34 129.03-7.34L129.03-7.34L129.03-7.34Q128.69-9.13 128.59-11.16L128.59-11.16L128.59-11.16Q128.50-13.19 128.50-15.34L128.50-15.34L128.50-32.50L133.88-32.50L133.88-13.84L133.88-13.84Q133.88-11.81 134.06-10.05L134.06-10.05L134.06-10.05Q134.25-8.28 134.89-6.98L134.89-6.98L134.89-6.98Q135.53-5.69 136.78-4.95L136.78-4.95L136.78-4.95Q138.03-4.22 140.19-4.22L140.19-4.22L140.19-4.22Q141.78-4.22 143.19-4.98L143.19-4.98L143.19-4.98Q144.59-5.75 145.78-6.94L145.78-6.94L145.78-6.94Q146.97-8.13 147.95-9.56L147.95-9.56L147.95-9.56Q148.94-11 149.75-12.38L149.75-12.38L149.75-32.50ZM185.94 4.09L185.94-49.09L190.78-49.09L190.78 4.09L185.94 4.09ZM239.06-7.16L252.28-44.94L258.44-44.94L241.66 0.06L236.44 0.06L219.63-44.94L225.78-44.94L239.06-7.16ZM270.38-45.09L270.38-45.09L270.38-45.09Q271.81-45.09 272.88-44.09L272.88-44.09L272.88-44.09Q273.91-43 273.91-41.53L273.91-41.53L273.91-41.53Q273.91-40.03 272.88-39L272.88-39L272.88-39Q271.81-37.94 270.38-37.94L270.38-37.94L270.38-37.94Q268.88-37.94 267.81-39L267.81-39L267.81-39Q266.75-40 266.75-41.53L266.75-41.53L266.75-41.53Q266.75-43.03 267.81-44.09L267.81-44.09L267.81-44.09Q268.88-45.09 270.38-45.09ZM267.63 0L267.63-32.50L273-32.50L273 0L267.63 0ZM289.75-24.97L290.03-24.97L290.03-24.97Q291-26.91 292.11-28.47L292.11-28.47L292.11-28.47Q293.22-30.03 294.56-31.13L294.56-31.13L294.56-31.13Q295.78-32.19 297.25-32.70L297.25-32.70L297.25-32.70Q298.72-33.22 300.59-33.22L300.59-33.22L300.59-33.22Q301.22-33.22 302.05-33.16L302.05-33.16L302.05-33.16Q302.88-33.09 303.63-32.94L303.63-32.94L303.63-32.94Q303.50-31.38 303.33-30L303.33-30L303.33-30Q303.16-28.63 302.88-27.22L302.88-27.22L302.88-27.22Q301.31-27.50 300.02-27.63L300.02-27.63L300.02-27.63Q298.72-27.75 297.56-27.56L297.56-27.56L297.56-27.56Q296.19-27.31 295.17-26.64L295.17-26.64L295.17-26.64Q294.16-25.97 293.30-24.86L293.30-24.86L293.30-24.86Q292.44-23.75 291.63-22.20L291.63-22.20L291.63-22.20Q290.81-20.66 289.84-18.66L289.84-18.66L289.84 0L284.47 0L284.47-20.03L284.47-20.03Q284.47-22 284.42-23.50L284.42-23.50L284.42-23.50Q284.38-25 284.23-26.36L284.23-26.36L284.23-26.36Q284.09-27.72 283.81-29.05L283.81-29.05L283.81-29.05Q283.53-30.38 283.06-32L283.06-32L283.06-32Q284.38-32.34 285.64-32.63L285.64-32.63L285.64-32.63Q286.91-32.91 288.22-33.16L288.22-33.16L288.22-33.16Q288.66-31.91 288.92-30.94L288.92-30.94L288.92-30.94Q289.19-29.97 289.34-29.05L289.34-29.05L289.34-29.05Q289.50-28.13 289.58-27.17L289.58-27.17L289.58-27.17Q289.66-26.22 289.75-24.97L289.75-24.97ZM313.09-32.50L313.09-39.94L318.47-39.94L318.47-32.50L329.41-32.50L329.41-27.97L318.47-27.97L318.47-9.31L318.47-9.31Q318.47-7.44 318.58-6.45L318.58-6.45L318.58-6.45Q318.69-5.47 319.13-4.91L319.13-4.91L319.13-4.91Q319.94-3.78 322.41-3.78L322.41-3.78L322.41-3.78Q323.78-3.78 325.06-4.06L325.06-4.06L325.06-4.06Q326.38-4.34 327.47-4.69L327.47-4.69L327.47-4.69Q328.34-2.78 329.06-0.50L329.06-0.50L329.06-0.50Q325.38 0.75 321.63 0.75L321.63 0.75L321.63 0.75Q318.91 0.75 317.27 0.14L317.27 0.14L317.27 0.14Q315.63-0.47 314.69-1.84L314.69-1.84L314.69-1.84Q313.72-3.28 313.41-5.28L313.41-5.28L313.41-5.28Q313.09-7.28 313.09-10.81L313.09-10.81L313.09-27.97L308.41-27.97L308.41-32.50L313.09-32.50ZM364-0.56L364-0.56L358.81 0.59L358.81 0.59Q358.22-1.28 357.97-3.03L357.97-3.03L357.97-3.03Q357.84-3.84 357.66-6.34L357.66-6.34L357-6.34L357-6.34Q355.28-3.19 352.75-1.31L352.75-1.31L352.75-1.31Q349.97 0.75 346.88 0.75L346.88 0.75L346.88 0.75Q342.22 0.75 339.78-1.50L339.78-1.50L339.78-1.50Q337.69-3.41 336.88-7.34L336.88-7.34L336.88-7.34Q336.34-10.03 336.34-15.34L336.34-15.34L336.34-32.50L341.72-32.50L341.72-13.84L341.72-13.84Q341.72-9.19 342.63-7.19L342.63-7.19L342.63-7.19Q343.97-4.22 348.03-4.22L348.03-4.22L348.03-4.22Q350.91-4.22 353.66-6.97L353.66-6.97L353.66-6.97Q355.50-8.81 357.59-12.38L357.59-12.38L357.59-32.50L362.97-32.50L362.97-12.44L362.97-12.44Q362.97-8.28 363.19-5.22L363.19-5.22L363.19-5.22Q363.31-3.31 364-0.56ZM375.22-26.75L375.22-26.75L373.84-31.13L373.84-31.13Q379.09-33.22 384.84-33.22L384.84-33.22L384.84-33.22Q389.88-33.22 392.53-31.53L392.53-31.53L392.53-31.53Q395.56-29.59 395.56-24.94L395.56-24.94L395.56-12.16L395.56-12.16Q395.56-9.59 395.63-6.91L395.63-6.91L395.63-6.91Q395.66-5.31 395.94-3.59L395.94-3.59L395.94-3.59Q396.19-1.97 396.59-0.50L396.59-0.50L391.47 0.63L391.47 0.63Q390.75-1.47 390.56-4.06L390.56-4.06L389.94-4.13L389.94-4.13Q386.06 0.75 380.06 0.75L380.06 0.75L380.06 0.75Q375.69 0.75 373.03-1.67L373.03-1.67L373.03-1.67Q370.38-4.09 370.38-8.50L370.38-8.50L370.38-8.50Q370.38-11.78 371.83-13.88L371.83-13.88L371.83-13.88Q373.28-15.97 375.94-17.41L375.94-17.41L375.94-17.41Q380.13-19.69 387.66-19.69L387.66-19.69L387.66-19.69Q388.66-19.69 390.34-19.63L390.34-19.63L390.34-24.38L390.34-24.38Q390.34-26.63 388.97-27.63L388.97-27.63L388.97-27.63Q387.59-28.63 384.66-28.63L384.66-28.63L384.66-28.63Q380.38-28.63 375.22-26.75ZM390.34-9.13L390.34-9.13L390.34-15.69L390.34-15.69Q389.50-15.75 387.88-15.75L387.88-15.75L387.88-15.75Q385.13-15.75 382.81-15.28L382.81-15.28L382.81-15.28Q379.38-14.59 377.48-13.11L377.48-13.11L377.48-13.11Q375.59-11.63 375.59-8.84L375.59-8.84L375.59-8.84Q375.59-3.84 381.03-3.84L381.03-3.84L381.03-3.84Q383.84-3.84 386.28-5.34L386.28-5.34L386.28-5.34Q388.28-6.59 390.34-9.13ZM410.34-44.94L410.34-12.63L410.34-12.63Q410.34-10.06 410.41-8.33L410.41-8.33L410.41-8.33Q410.47-6.59 410.56-5.28L410.56-5.28L410.56-5.28Q410.66-3.97 410.86-2.91L410.86-2.91L410.86-2.91Q411.06-1.84 411.38-0.56L411.38-0.56L411.38-0.56Q410.06-0.22 408.75 0.08L408.75 0.08L408.75 0.08Q407.44 0.38 406.13 0.59L406.13 0.59L406.13 0.59Q405.50-1.44 405.23-3.13L405.23-3.13L405.23-3.13Q404.97-4.81 404.97-6.44L404.97-6.44L404.97-44.94L410.34-44.94ZM475.78-44.94L475.78 0.31L468.91 0.31L445-37.25L445 0L439.13 0L439.13-44.94L446-44.94L469.91-7.38L469.91-44.94L475.78-44.94ZM489.75-45.09L489.75-45.09L489.75-45.09Q491.19-45.09 492.25-44.09L492.25-44.09L492.25-44.09Q493.28-43 493.28-41.53L493.28-41.53L493.28-41.53Q493.28-40.03 492.25-39L492.25-39L492.25-39Q491.19-37.94 489.75-37.94L489.75-37.94L489.75-37.94Q488.25-37.94 487.19-39L487.19-39L487.19-39Q486.13-40 486.13-41.53L486.13-41.53L486.13-41.53Q486.13-43.03 487.19-44.09L487.19-44.09L487.19-44.09Q488.25-45.09 489.75-45.09ZM487 0L487-32.50L492.38-32.50L492.38 0L487 0ZM519.25-32.50L522.13-32.50L522.13-32.50Q523.47-32.50 524.48-32.53L524.48-32.53L524.48-32.53Q525.50-32.56 526.44-32.67L526.44-32.67L526.44-32.67Q527.38-32.78 528.33-33L528.33-33L528.33-33Q529.28-33.22 530.56-33.63L530.56-33.63L530.56-33.63Q530.97-32.44 531.36-31.38L531.36-31.38L531.36-31.38Q531.75-30.31 532.16-29.19L532.16-29.19L532.16-29.19Q531.16-28.81 530.31-28.59L530.31-28.59L530.31-28.59Q529.47-28.38 528.64-28.23L528.64-28.23L528.64-28.23Q527.81-28.09 526.98-28.05L526.98-28.05L526.98-28.05Q526.16-28 525.22-27.97L525.22-27.97L525.22-27.97Q526.09-26.56 526.56-24.81L526.56-24.81L526.56-24.81Q527.03-23.06 527.03-21L527.03-21L527.03-21Q527.03-18 526.13-15.77L526.13-15.77L526.13-15.77Q525.22-13.53 523.53-11.97L523.53-11.97L523.53-11.97Q521.84-10.41 519.48-9.61L519.48-9.61L519.48-9.61Q517.13-8.81 514.19-8.81L514.19-8.81L514.19-8.81Q512.69-8.81 511.34-8.98L511.34-8.98L511.34-8.98Q510-9.16 508.78-9.59L508.78-9.59L508.78-9.59Q508.50-8.84 508.30-8.06L508.30-8.06L508.30-8.06Q508.09-7.28 508.11-6.58L508.11-6.58L508.11-6.58Q508.13-5.88 508.38-5.30L508.38-5.30L508.38-5.30Q508.63-4.72 509.25-4.38L509.25-4.38L509.25-4.38Q509.56-4.19 509.91-4.08L509.91-4.08L509.91-4.08Q510.25-3.97 510.73-3.89L510.73-3.89L510.73-3.89Q511.22-3.81 511.91-3.77L511.91-3.77L511.91-3.77Q512.59-3.72 513.56-3.72L513.56-3.72L513.56-3.72Q514.50-3.69 515.77-3.69L515.77-3.69L515.77-3.69Q517.03-3.69 518.72-3.69L518.72-3.69L518.72-3.69Q523.59-3.69 526.09-1.64L526.09-1.64L526.09-1.64Q528.59 0.41 528.59 4.72L528.59 4.72L528.59 4.72Q528.59 6.47 528.03 7.83L528.03 7.83L528.03 7.83Q527.47 9.19 526.48 10.19L526.48 10.19L526.48 10.19Q525.50 11.19 524.16 11.86L524.16 11.86L524.16 11.86Q522.81 12.53 521.25 12.95L521.25 12.95L521.25 12.95Q519.69 13.38 517.98 13.55L517.98 13.55L517.98 13.55Q516.28 13.72 514.56 13.72L514.56 13.72L514.56 13.72Q512.84 13.72 511.11 13.53L511.11 13.53L511.11 13.53Q509.38 13.34 507.72 13.06L507.72 13.06L507.72 13.06Q506.06 12.78 504.61 12.42L504.61 12.42L504.61 12.42Q503.16 12.06 502.03 11.72L502.03 11.72L502.03 11.72Q502.47 10.66 503.02 9.59L503.02 9.59L503.02 9.59Q503.56 8.53 504.19 7.59L504.19 7.59L504.19 7.59Q506.16 8.16 508.88 8.69L508.88 8.69L508.88 8.69Q511.59 9.22 514.91 9.22L514.91 9.22L514.91 9.22Q516.41 9.22 517.86 9.03L517.86 9.03L517.86 9.03Q519.31 8.84 520.48 8.33L520.48 8.33L520.48 8.33Q521.66 7.81 522.38 6.95L522.38 6.95L522.38 6.95Q523.09 6.09 523.09 4.72L523.09 4.72L523.09 4.72Q523.09 3.28 522.58 2.50L522.58 2.50L522.58 2.50Q522.06 1.72 521.19 1.34L521.19 1.34L521.19 1.34Q520.31 0.97 519.13 0.91L519.13 0.91L519.13 0.91Q517.94 0.84 516.63 0.84L516.63 0.84L512.53 0.84L512.53 0.84Q510.69 0.84 509.06 0.56L509.06 0.56L509.06 0.56Q507.44 0.28 506.22-0.39L506.22-0.39L506.22-0.39Q505-1.06 504.30-2.16L504.30-2.16L504.30-2.16Q503.59-3.25 503.59-4.84L503.59-4.84L503.59-4.84Q503.59-6.38 504.16-8.02L504.16-8.02L504.16-8.02Q504.72-9.66 505.63-11.34L505.63-11.34L505.63-11.34Q503.56-12.84 502.45-15.31L502.45-15.31L502.45-15.31Q501.34-17.78 501.34-21L501.34-21L501.34-21Q501.34-23.94 502.27-26.20L502.27-26.20L502.27-26.20Q503.19-28.47 504.88-30.06L504.88-30.06L504.88-30.06Q506.56-31.66 508.91-32.44L508.91-32.44L508.91-32.44Q511.25-33.22 514.19-33.22L514.19-33.22L514.19-33.22Q516.94-33.22 519.25-32.50L519.25-32.50ZM514.19-28.91L514.19-28.91L514.19-28.91Q512.22-28.91 510.81-28.31L510.81-28.31L510.81-28.31Q509.41-27.72 508.52-26.67L508.52-26.67L508.52-26.67Q507.63-25.63 507.20-24.17L507.20-24.17L507.20-24.17Q506.78-22.72 506.78-21L506.78-21L506.78-21Q506.78-19.25 507.20-17.81L507.20-17.81L507.20-17.81Q507.63-16.38 508.53-15.33L508.53-15.33L508.53-15.33Q509.44-14.28 510.83-13.70L510.83-13.70L510.83-13.70Q512.22-13.13 514.19-13.13L514.19-13.13L514.19-13.13Q516.16-13.13 517.56-13.70L517.56-13.70L517.56-13.70Q518.97-14.28 519.86-15.33L519.86-15.33L519.86-15.33Q520.75-16.38 521.17-17.83L521.17-17.83L521.17-17.83Q521.59-19.28 521.59-21L521.59-21L521.59-21Q521.59-22.72 521.17-24.17L521.17-24.17L521.17-24.17Q520.75-25.63 519.86-26.67L519.86-26.67L519.86-26.67Q518.97-27.72 517.56-28.31L517.56-28.31L517.56-28.31Q516.16-28.91 514.19-28.91ZM538.72 0L538.72-45L544.09-45L544.09-25.41L544.09-25.41Q546.19-28.97 548.84-30.97L548.84-30.97L548.84-30.97Q551.88-33.22 554.88-33.22L554.88-33.22L554.88-33.22Q559.38-33.22 561.88-30.97L561.88-30.97L561.88-30.97Q564.03-29.03 564.84-25.13L564.84-25.13L564.84-25.13Q565.47-22.16 565.47-17.13L565.47-17.13L565.47 0L560.09 0L560.09-18.63L560.09-18.63Q560.09-20.53 560-21.77L560-21.77L560-21.77Q559.91-23 559.55-24.36L559.55-24.36L559.55-24.36Q559.19-25.72 558.52-26.48L558.52-26.48L558.52-26.48Q557.84-27.25 556.64-27.75L556.64-27.75L556.64-27.75Q555.44-28.25 553.72-28.25L553.72-28.25L553.72-28.25Q550.75-28.25 548-25.44L548-25.44L548-25.44Q546.25-23.66 544.09-20L544.09-20L544.09 0L538.72 0ZM577.59-32.50L577.59-39.94L582.97-39.94L582.97-32.50L593.91-32.50L593.91-27.97L582.97-27.97L582.97-9.31L582.97-9.31Q582.97-7.44 583.08-6.45L583.08-6.45L583.08-6.45Q583.19-5.47 583.63-4.91L583.63-4.91L583.63-4.91Q584.44-3.78 586.91-3.78L586.91-3.78L586.91-3.78Q588.28-3.78 589.56-4.06L589.56-4.06L589.56-4.06Q590.88-4.34 591.97-4.69L591.97-4.69L591.97-4.69Q592.84-2.78 593.56-0.50L593.56-0.50L593.56-0.50Q589.88 0.75 586.13 0.75L586.13 0.75L586.13 0.75Q583.41 0.75 581.77 0.14L581.77 0.14L581.77 0.14Q580.13-0.47 579.19-1.84L579.19-1.84L579.19-1.84Q578.22-3.28 577.91-5.28L577.91-5.28L577.91-5.28Q577.59-7.28 577.59-10.81L577.59-10.81L577.59-27.97L572.91-27.97L572.91-32.50L577.59-32.50ZM649.19-6.09L650.66-1.28L650.66-1.28Q647.75-0.38 644.52 0.19L644.52 0.19L644.52 0.19Q641.28 0.75 637.41 0.75L637.41 0.75L637.41 0.75Q627.84 0.75 622.97-4.97L622.97-4.97L622.97-4.97Q618.09-10.69 618.09-21.81L618.09-21.81L618.09-21.81Q618.09-33.63 622.97-39.63L622.97-39.63L622.97-39.63Q627.84-45.63 637.41-45.63L637.41-45.63L637.41-45.63Q641.03-45.63 643.92-45L643.92-45L643.92-45Q646.81-44.38 649.50-43.38L649.50-43.38L647.88-38.75L647.88-38.75Q646.59-39.22 645.34-39.59L645.34-39.59L645.34-39.59Q644.09-39.97 642.83-40.22L642.83-40.22L642.83-40.22Q641.56-40.47 640.22-40.59L640.22-40.59L640.22-40.59Q638.88-40.72 637.41-40.72L637.41-40.72L637.41-40.72Q633.94-40.72 631.44-39.48L631.44-39.48L631.44-39.48Q628.94-38.25 627.31-35.89L627.31-35.89L627.31-35.89Q625.69-33.53 624.91-30.14L624.91-30.14L624.91-30.14Q624.13-26.75 624.13-22.44L624.13-22.44L624.13-22.44Q624.13-18 624.91-14.59L624.91-14.59L624.91-14.59Q625.69-11.19 627.31-8.86L627.31-8.86L627.31-8.86Q628.94-6.53 631.44-5.34L631.44-5.34L631.44-5.34Q633.94-4.16 637.41-4.16L637.41-4.16L637.41-4.16Q640.59-4.16 643.47-4.69L643.47-4.69L643.47-4.69Q646.34-5.22 649.19-6.09L649.19-6.09ZM662.97-44.94L662.97-12.63L662.97-12.63Q662.97-10.06 663.03-8.33L663.03-8.33L663.03-8.33Q663.09-6.59 663.19-5.28L663.19-5.28L663.19-5.28Q663.28-3.97 663.48-2.91L663.48-2.91L663.48-2.91Q663.69-1.84 664-0.56L664-0.56L664-0.56Q662.69-0.22 661.38 0.08L661.38 0.08L661.38 0.08Q660.06 0.38 658.75 0.59L658.75 0.59L658.75 0.59Q658.13-1.44 657.86-3.13L657.86-3.13L657.86-3.13Q657.59-4.81 657.59-6.44L657.59-6.44L657.59-44.94L662.97-44.94ZM700.19-0.56L700.19-0.56L695 0.59L695 0.59Q694.41-1.28 694.16-3.03L694.16-3.03L694.16-3.03Q694.03-3.84 693.84-6.34L693.84-6.34L693.19-6.34L693.19-6.34Q691.47-3.19 688.94-1.31L688.94-1.31L688.94-1.31Q686.16 0.75 683.06 0.75L683.06 0.75L683.06 0.75Q678.41 0.75 675.97-1.50L675.97-1.50L675.97-1.50Q673.88-3.41 673.06-7.34L673.06-7.34L673.06-7.34Q672.53-10.03 672.53-15.34L672.53-15.34L672.53-32.50L677.91-32.50L677.91-13.84L677.91-13.84Q677.91-9.19 678.81-7.19L678.81-7.19L678.81-7.19Q680.16-4.22 684.22-4.22L684.22-4.22L684.22-4.22Q687.09-4.22 689.84-6.97L689.84-6.97L689.84-6.97Q691.69-8.81 693.78-12.38L693.78-12.38L693.78-32.50L699.16-32.50L699.16-12.44L699.16-12.44Q699.16-8.28 699.38-5.22L699.38-5.22L699.38-5.22Q699.50-3.31 700.19-0.56ZM709.75-0.25L709.75-45L715.13-45L715.13-26.28L715.78-26.22L715.78-26.22Q717.25-29.47 719.25-31.16L719.25-31.16L719.25-31.16Q721.56-33.22 724.84-33.22L724.84-33.22L724.84-33.22Q730.56-33.22 733.59-28.41L733.59-28.41L733.59-28.41Q736.31-23.94 736.31-16.88L736.31-16.88L736.31-16.88Q736.31-8.28 732.22-3.63L732.22-3.63L732.22-3.63Q728.31 0.75 720.66 0.75L720.66 0.75L720.66 0.75Q716.47 0.75 709.75-0.25L709.75-0.25ZM714.81-19.19L714.81-19.19L714.81-4.44L714.81-4.44Q717.69-3.84 720.66-3.84L720.66-3.84L720.66-3.84Q725.72-3.84 728.25-6.81L728.25-6.81L728.25-6.81Q730.88-9.88 730.88-15.91L730.88-15.91L730.88-15.91Q730.88-21.38 729.69-24.34L729.69-24.34L729.69-24.34Q728.13-28.25 724.38-28.25L724.38-28.25L724.38-28.25Q721.09-28.25 718.59-25.50L718.59-25.50L718.59-25.50Q716.84-23.63 714.81-19.19Z" fill="#444"></path></g></g><style>text {
  font-size: 64px;
  font-family: Arial Black;
  dominant-baseline: central;
  text-anchor: middle;
}</style></svg>