<svg width="1503.3775390624999px" height="201.2199951171875px" xmlns="http://www.w3.org/2000/svg" viewBox="-501.68876953124993 -25.609997558593747 1503.3775390624999 201.2199951171875" style="background: rgba(0, 0, 0, 0);" preserveAspectRatio="xMidYMid"><defs><filter id="editing-vr"><feFlood flood-color="#f00" flood-opacity="0.7" result="c1"></feFlood><feFlood flood-color="#7373cb" flood-opacity="0.7" result="c3"></feFlood><feComposite operator="in" in="c1" in2="SourceAlpha" result="text-c1"></feComposite><feComposite operator="in" in="c3" in2="SourceAlpha" result="text-c3"></feComposite><feOffset in="text-c1" dx="5" dy="-1" result="text1"></feOffset><feOffset in="text-c3" dx="-5" dy="1" result="text3"></feOffset><feBlend in="SourceGraphic" in2="text1" mode="multiply" result="text4"></feBlend><feBlend in="text4" in2="text3" mode="multiply"></feBlend></filter></defs><g filter="url(#editing-vr)"><g transform="translate(-297.925012588501, 123.09000015258789)"><path d="M8.85-68.81L30.39-68.81L30.39-68.81Q35.12-68.81 39.24-67.78L39.24-67.78L39.24-67.78Q43.35-66.75 46.39-64.43L46.39-64.43L46.39-64.43Q49.43-62.11 51.18-58.38L51.18-58.38L51.18-58.38Q52.92-54.65 52.92-49.29L52.92-49.29L52.92-49.29Q52.92-43.31 50.91-39.53L50.91-39.53L50.91-39.53Q48.90-35.75 45.48-33.54L45.48-33.54L45.48-33.54Q42.06-31.34 37.54-30.53L37.54-30.53L37.54-30.53Q33.02-29.72 27.99-29.72L27.99-29.72L27.99-29.72Q25.27-29.72 22.66-29.91L22.66-29.91L22.66-29.91Q20.05-30.10 17.75-30.34L17.75-30.34L17.75 0L8.85 0L8.85-68.81ZM17.75-61.63L17.75-37.52L17.75-37.52Q20.05-37.23 22.56-37.06L22.56-37.06L22.56-37.06Q25.07-36.89 27.61-36.89L27.61-36.89L27.61-36.89Q31.25-36.89 34.29-37.35L34.29-37.35L34.29-37.35Q37.32-37.80 39.48-39.14L39.48-39.14L39.48-39.14Q41.63-40.48 42.83-42.92L42.83-42.92L42.83-42.92Q44.02-45.36 44.02-49.29L44.02-49.29L44.02-49.29Q44.02-52.88 43.02-55.24L43.02-55.24L43.02-55.24Q42.01-57.61 40.22-59.05L40.22-59.05L40.22-59.05Q38.42-60.48 35.91-61.06L35.91-61.06L35.91-61.06Q33.40-61.63 30.39-61.63L30.39-61.63L17.75-61.63ZM69.29-40.96L69.29-40.96L67.18-47.66L67.18-47.66Q75.22-50.87 84.03-50.87L84.03-50.87L84.03-50.87Q91.73-50.87 95.80-48.28L95.80-48.28L95.80-48.28Q100.44-45.32 100.44-38.19L100.44-38.19L100.44-18.61L100.44-18.61Q100.44-14.69 100.54-10.58L100.54-10.58L100.54-10.58Q100.58-8.13 101.01-5.50L101.01-5.50L101.01-5.50Q101.40-3.01 102.02-0.77L102.02-0.77L94.17 0.96L94.17 0.96Q93.07-2.25 92.78-6.22L92.78-6.22L91.83-6.32L91.83-6.32Q85.89 1.15 76.71 1.15L76.71 1.15L76.71 1.15Q70.01 1.15 65.94-2.56L65.94-2.56L65.94-2.56Q61.87-6.27 61.87-13.02L61.87-13.02L61.87-13.02Q61.87-18.04 64.10-21.25L64.10-21.25L64.10-21.25Q66.32-24.45 70.39-26.65L70.39-26.65L70.39-26.65Q76.80-30.15 88.33-30.15L88.33-30.15L88.33-30.15Q89.87-30.15 92.45-30.05L92.45-30.05L92.45-37.32L92.45-37.32Q92.45-40.77 90.34-42.30L90.34-42.30L90.34-42.30Q88.24-43.83 83.74-43.83L83.74-43.83L83.74-43.83Q77.18-43.83 69.29-40.96ZM92.45-13.97L92.45-13.97L92.45-24.02L92.45-24.02Q91.16-24.12 88.67-24.12L88.67-24.12L88.67-24.12Q84.46-24.12 80.92-23.40L80.92-23.40L80.92-23.40Q75.65-22.35 72.76-20.07L72.76-20.07L72.76-20.07Q69.86-17.80 69.86-13.54L69.86-13.54L69.86-13.54Q69.86-5.89 78.19-5.89L78.19-5.89L78.19-5.89Q82.50-5.89 86.23-8.18L86.23-8.18L86.23-8.18Q89.29-10.10 92.45-13.97ZM124.70-38.23L125.13-38.23L125.13-38.23Q126.62-41.20 128.31-43.59L128.31-43.59L128.31-43.59Q130.01-45.99 132.07-47.66L132.07-47.66L132.07-47.66Q133.94-49.29 136.19-50.08L136.19-50.08L136.19-50.08Q138.43-50.87 141.31-50.87L141.31-50.87L141.31-50.87Q142.26-50.87 143.53-50.77L143.53-50.77L143.53-50.77Q144.80-50.67 145.95-50.44L145.95-50.44L145.95-50.44Q145.76-48.04 145.49-45.94L145.49-45.94L145.49-45.94Q145.23-43.83 144.80-41.68L144.80-41.68L144.80-41.68Q142.41-42.11 140.42-42.30L140.42-42.30L140.42-42.30Q138.43-42.49 136.66-42.21L136.66-42.21L136.66-42.21Q134.56-41.82 133.00-40.79L133.00-40.79L133.00-40.79Q131.45-39.76 130.13-38.07L130.13-38.07L130.13-38.07Q128.82-36.37 127.57-34.00L127.57-34.00L127.57-34.00Q126.33-31.63 124.84-28.57L124.84-28.57L124.84 0L116.61 0L116.61-30.67L116.61-30.67Q116.61-33.69 116.54-35.98L116.54-35.98L116.54-35.98Q116.47-38.28 116.26-40.36L116.26-40.36L116.26-40.36Q116.04-42.44 115.61-44.48L115.61-44.48L115.61-44.48Q115.18-46.51 114.46-49L114.46-49L114.46-49Q116.47-49.53 118.41-49.96L118.41-49.96L118.41-49.96Q120.35-50.39 122.36-50.77L122.36-50.77L122.36-50.77Q123.03-48.86 123.43-47.37L123.43-47.37L123.43-47.37Q123.84-45.89 124.08-44.48L124.08-44.48L124.08-44.48Q124.32-43.07 124.44-41.61L124.44-41.61L124.44-41.61Q124.56-40.15 124.70-38.23L124.70-38.23ZM160.45-49.77L160.45-61.15L168.68-61.15L168.68-49.77L185.42-49.77L185.42-42.83L168.68-42.83L168.68-14.26L168.68-14.26Q168.68-11.39 168.84-9.88L168.84-9.88L168.84-9.88Q169.01-8.37 169.68-7.51L169.68-7.51L169.68-7.51Q170.93-5.79 174.71-5.79L174.71-5.79L174.71-5.79Q176.81-5.79 178.77-6.22L178.77-6.22L178.77-6.22Q180.78-6.65 182.46-7.18L182.46-7.18L182.46-7.18Q183.80-4.26 184.90-0.77L184.90-0.77L184.90-0.77Q179.25 1.15 173.51 1.15L173.51 1.15L173.51 1.15Q169.35 1.15 166.83 0.22L166.83 0.22L166.83 0.22Q164.32-0.72 162.89-2.82L162.89-2.82L162.89-2.82Q161.40-5.02 160.92-8.09L160.92-8.09L160.92-8.09Q160.45-11.15 160.45-16.56L160.45-16.56L160.45-42.83L153.27-42.83L153.27-49.77L160.45-49.77ZM229.30-49.77L237.54-49.77L237.54 1.10L237.54 1.10Q237.54 5.84 235.98 9.28L235.98 9.28L235.98 9.28Q234.42 12.73 231.67 14.98L231.67 14.98L231.67 14.98Q228.92 17.23 225.14 18.30L225.14 18.30L225.14 18.30Q221.36 19.38 216.91 19.38L216.91 19.38L216.91 19.38Q212.89 19.38 208.82 18.69L208.82 18.69L208.82 18.69Q204.76 17.99 201.07 16.75L201.07 16.75L201.07 16.75Q201.69 15.07 202.36 13.49L202.36 13.49L202.36 13.49Q203.03 11.92 203.70 10.34L203.70 10.34L203.70 10.34Q204.85 10.72 206.46 11.15L206.46 11.15L206.46 11.15Q208.06 11.58 209.85 11.94L209.85 11.94L209.85 11.94Q211.65 12.30 213.54 12.51L213.54 12.51L213.54 12.51Q215.43 12.73 217.20 12.73L217.20 12.73L217.20 12.73Q219.97 12.73 222.22 11.99L222.22 11.99L222.22 11.99Q224.47 11.25 226.05 9.76L226.05 9.76L226.05 9.76Q227.63 8.28 228.47 6.10L228.47 6.10L228.47 6.10Q229.30 3.92 229.30 1.10L229.30 1.10L229.30-9.71L228.40-9.71L228.40-9.71Q227.15-7.46 225.52-5.48L225.52-5.48L225.52-5.48Q223.90-3.49 221.94-2.01L221.94-2.01L221.94-2.01Q219.97-0.53 217.70 0.31L217.70 0.31L217.70 0.31Q215.43 1.15 212.89 1.15L212.89 1.15L212.89 1.15Q209.40 1.15 206.81 0.36L206.81 0.36L206.81 0.36Q204.23-0.43 202.39-1.99L202.39-1.99L202.39-1.99Q200.55-3.54 199.37-5.86L199.37-5.86L199.37-5.86Q198.20-8.18 197.58-11.25L197.58-11.25L197.58-11.25Q197.05-13.97 196.91-17.08L196.91-17.08L196.91-17.08Q196.77-20.19 196.77-23.50L196.77-23.50L196.77-49.77L205.00-49.77L205.00-21.20L205.00-21.20Q205.00-18.09 205.28-15.38L205.28-15.38L205.28-15.38Q205.57-12.68 206.55-10.69L206.55-10.69L206.55-10.69Q207.53-8.71 209.45-7.58L209.45-7.58L209.45-7.58Q211.36-6.46 214.66-6.46L214.66-6.46L214.66-6.46Q217.10-6.46 219.26-7.63L219.26-7.63L219.26-7.63Q221.41-8.80 223.23-10.62L223.23-10.62L223.23-10.62Q225.05-12.44 226.55-14.64L226.55-14.64L226.55-14.64Q228.06-16.84 229.30-18.95L229.30-18.95L229.30-49.77ZM284.72 6.27L284.72-75.17L292.13-75.17L292.13 6.27L284.72 6.27ZM366.06-10.96L386.31-68.81L395.73-68.81L370.04 0.10L362.04 0.10L336.30-68.81L345.73-68.81L366.06-10.96ZM414.01-69.05L414.01-69.05L414.01-69.05Q416.21-69.05 417.84-67.52L417.84-67.52L417.84-67.52Q419.42-65.84 419.42-63.59L419.42-63.59L419.42-63.59Q419.42-61.30 417.84-59.72L417.84-59.72L417.84-59.72Q416.21-58.09 414.01-58.09L414.01-58.09L414.01-58.09Q411.71-58.09 410.09-59.72L410.09-59.72L410.09-59.72Q408.46-61.25 408.46-63.59L408.46-63.59L408.46-63.59Q408.46-65.89 410.09-67.52L410.09-67.52L410.09-67.52Q411.71-69.05 414.01-69.05ZM409.80 0L409.80-49.77L418.03-49.77L418.03 0L409.80 0ZM443.68-38.23L444.11-38.23L444.11-38.23Q445.59-41.20 447.29-43.59L447.29-43.59L447.29-43.59Q448.99-45.99 451.05-47.66L451.05-47.66L451.05-47.66Q452.92-49.29 455.16-50.08L455.16-50.08L455.16-50.08Q457.41-50.87 460.28-50.87L460.28-50.87L460.28-50.87Q461.24-50.87 462.51-50.77L462.51-50.77L462.51-50.77Q463.78-50.67 464.93-50.44L464.93-50.44L464.93-50.44Q464.73-48.04 464.47-45.94L464.47-45.94L464.47-45.94Q464.21-43.83 463.78-41.68L463.78-41.68L463.78-41.68Q461.38-42.11 459.40-42.30L459.40-42.30L459.40-42.30Q457.41-42.49 455.64-42.21L455.64-42.21L455.64-42.21Q453.54-41.82 451.98-40.79L451.98-40.79L451.98-40.79Q450.43-39.76 449.11-38.07L449.11-38.07L449.11-38.07Q447.79-36.37 446.55-34.00L446.55-34.00L446.55-34.00Q445.31-31.63 443.82-28.57L443.82-28.57L443.82 0L435.59 0L435.59-30.67L435.59-30.67Q435.59-33.69 435.52-35.98L435.52-35.98L435.52-35.98Q435.45-38.28 435.23-40.36L435.23-40.36L435.23-40.36Q435.02-42.44 434.59-44.48L434.59-44.48L434.59-44.48Q434.16-46.51 433.44-49L433.44-49L433.44-49Q435.45-49.53 437.39-49.96L437.39-49.96L437.39-49.96Q439.33-50.39 441.33-50.77L441.33-50.77L441.33-50.77Q442.00-48.86 442.41-47.37L442.41-47.37L442.41-47.37Q442.82-45.89 443.06-44.48L443.06-44.48L443.06-44.48Q443.30-43.07 443.42-41.61L443.42-41.61L443.42-41.61Q443.54-40.15 443.68-38.23L443.68-38.23ZM479.42-49.77L479.42-61.15L487.66-61.15L487.66-49.77L504.40-49.77L504.40-42.83L487.66-42.83L487.66-14.26L487.66-14.26Q487.66-11.39 487.82-9.88L487.82-9.88L487.82-9.88Q487.99-8.37 488.66-7.51L488.66-7.51L488.66-7.51Q489.90-5.79 493.68-5.79L493.68-5.79L493.68-5.79Q495.79-5.79 497.75-6.22L497.75-6.22L497.75-6.22Q499.76-6.65 501.44-7.18L501.44-7.18L501.44-7.18Q502.78-4.26 503.88-0.77L503.88-0.77L503.88-0.77Q498.23 1.15 492.49 1.15L492.49 1.15L492.49 1.15Q488.33 1.15 485.81 0.22L485.81 0.22L485.81 0.22Q483.30-0.72 481.87-2.82L481.87-2.82L481.87-2.82Q480.38-5.02 479.90-8.09L479.90-8.09L479.90-8.09Q479.42-11.15 479.42-16.56L479.42-16.56L479.42-42.83L472.25-42.83L472.25-49.77L479.42-49.77ZM557.38-0.86L557.38-0.86L549.43 0.91L549.43 0.91Q548.52-1.96 548.14-4.64L548.14-4.64L548.14-4.64Q547.95-5.89 547.66-9.71L547.66-9.71L546.66-9.71L546.66-9.71Q544.02-4.88 540.15-2.01L540.15-2.01L540.15-2.01Q535.89 1.15 531.15 1.15L531.15 1.15L531.15 1.15Q524.02 1.15 520.29-2.30L520.29-2.30L520.29-2.30Q517.08-5.22 515.84-11.25L515.84-11.25L515.84-11.25Q515.03-15.36 515.03-23.50L515.03-23.50L515.03-49.77L523.26-49.77L523.26-21.20L523.26-21.20Q523.26-14.07 524.64-11.01L524.64-11.01L524.64-11.01Q526.70-6.46 532.92-6.46L532.92-6.46L532.92-6.46Q537.33-6.46 541.54-10.67L541.54-10.67L541.54-10.67Q544.36-13.49 547.57-18.95L547.57-18.95L547.57-49.77L555.80-49.77L555.80-19.04L555.80-19.04Q555.80-12.68 556.13-7.99L556.13-7.99L556.13-7.99Q556.32-5.07 557.38-0.86ZM574.55-40.96L574.55-40.96L572.45-47.66L572.45-47.66Q580.49-50.87 589.29-50.87L589.29-50.87L589.29-50.87Q597.00-50.87 601.06-48.28L601.06-48.28L601.06-48.28Q605.71-45.32 605.71-38.19L605.71-38.19L605.71-18.61L605.71-18.61Q605.71-14.69 605.80-10.58L605.80-10.58L605.80-10.58Q605.85-8.13 606.28-5.50L606.28-5.50L606.28-5.50Q606.66-3.01 607.28-0.77L607.28-0.77L599.44 0.96L599.44 0.96Q598.34-2.25 598.05-6.22L598.05-6.22L597.09-6.32L597.09-6.32Q591.16 1.15 581.97 1.15L581.97 1.15L581.97 1.15Q575.27 1.15 571.20-2.56L571.20-2.56L571.20-2.56Q567.14-6.27 567.14-13.02L567.14-13.02L567.14-13.02Q567.14-18.04 569.36-21.25L569.36-21.25L569.36-21.25Q571.59-24.45 575.65-26.65L575.65-26.65L575.65-26.65Q582.07-30.15 593.60-30.15L593.60-30.15L593.60-30.15Q595.13-30.15 597.71-30.05L597.71-30.05L597.71-37.32L597.71-37.32Q597.71-40.77 595.61-42.30L595.61-42.30L595.61-42.30Q593.50-43.83 589.00-43.83L589.00-43.83L589.00-43.83Q582.45-43.83 574.55-40.96ZM597.71-13.97L597.71-13.97L597.71-24.02L597.71-24.02Q596.42-24.12 593.93-24.12L593.93-24.12L593.93-24.12Q589.72-24.12 586.18-23.40L586.18-23.40L586.18-23.40Q580.92-22.35 578.02-20.07L578.02-20.07L578.02-20.07Q575.13-17.80 575.13-13.54L575.13-13.54L575.13-13.54Q575.13-5.89 583.45-5.89L583.45-5.89L583.45-5.89Q587.76-5.89 591.49-8.18L591.49-8.18L591.49-8.18Q594.56-10.10 597.71-13.97ZM628.34-68.81L628.34-19.33L628.34-19.33Q628.34-15.41 628.43-12.75L628.43-12.75L628.43-12.75Q628.53-10.10 628.67-8.09L628.67-8.09L628.67-8.09Q628.82-6.08 629.13-4.45L629.13-4.45L629.13-4.45Q629.44-2.82 629.92-0.86L629.92-0.86L629.92-0.86Q627.91-0.33 625.90 0.12L625.90 0.12L625.90 0.12Q623.89 0.57 621.88 0.91L621.88 0.91L621.88 0.91Q620.92-2.20 620.52-4.79L620.52-4.79L620.52-4.79Q620.11-7.37 620.11-9.86L620.11-9.86L620.11-68.81L628.34-68.81ZM728.54-68.81L728.54 0.48L718.01 0.48L681.41-57.04L681.41 0L672.41 0L672.41-68.81L682.94-68.81L719.54-11.29L719.54-68.81L728.54-68.81ZM749.93-69.05L749.93-69.05L749.93-69.05Q752.13-69.05 753.76-67.52L753.76-67.52L753.76-67.52Q755.34-65.84 755.34-63.59L755.34-63.59L755.34-63.59Q755.34-61.30 753.76-59.72L753.76-59.72L753.76-59.72Q752.13-58.09 749.93-58.09L749.93-58.09L749.93-58.09Q747.63-58.09 746.01-59.72L746.01-59.72L746.01-59.72Q744.38-61.25 744.38-63.59L744.38-63.59L744.38-63.59Q744.38-65.89 746.01-67.52L746.01-67.52L746.01-67.52Q747.63-69.05 749.93-69.05ZM745.72 0L745.72-49.77L753.95-49.77L753.95 0L745.72 0ZM795.10-49.77L799.50-49.77L799.50-49.77Q801.56-49.77 803.12-49.81L803.12-49.81L803.12-49.81Q804.67-49.86 806.11-50.03L806.11-50.03L806.11-50.03Q807.54-50.20 809.00-50.53L809.00-50.53L809.00-50.53Q810.46-50.87 812.42-51.49L812.42-51.49L812.42-51.49Q813.05-49.67 813.64-48.04L813.64-48.04L813.64-48.04Q814.24-46.42 814.86-44.69L814.86-44.69L814.86-44.69Q813.33-44.12 812.04-43.78L812.04-43.78L812.04-43.78Q810.75-43.45 809.48-43.23L809.48-43.23L809.48-43.23Q808.21-43.02 806.94-42.95L806.94-42.95L806.94-42.95Q805.68-42.88 804.24-42.83L804.24-42.83L804.24-42.83Q805.58-40.67 806.30-37.99L806.30-37.99L806.30-37.99Q807.02-35.31 807.02-32.16L807.02-32.16L807.02-32.16Q807.02-27.56 805.63-24.14L805.63-24.14L805.63-24.14Q804.24-20.72 801.66-18.33L801.66-18.33L801.66-18.33Q799.07-15.93 795.46-14.71L795.46-14.71L795.46-14.71Q791.85-13.49 787.35-13.49L787.35-13.49L787.35-13.49Q785.05-13.49 783.00-13.76L783.00-13.76L783.00-13.76Q780.94-14.02 779.07-14.69L779.07-14.69L779.07-14.69Q778.64-13.54 778.33-12.35L778.33-12.35L778.33-12.35Q778.02-11.15 778.04-10.07L778.04-10.07L778.04-10.07Q778.07-9.00 778.45-8.11L778.45-8.11L778.45-8.11Q778.83-7.23 779.79-6.70L779.79-6.70L779.79-6.70Q780.27-6.41 780.79-6.24L780.79-6.24L780.79-6.24Q781.32-6.08 782.06-5.96L782.06-5.96L782.06-5.96Q782.80-5.84 783.86-5.77L783.86-5.77L783.86-5.77Q784.91-5.69 786.39-5.69L786.39-5.69L786.39-5.69Q787.83-5.65 789.77-5.65L789.77-5.65L789.77-5.65Q791.70-5.65 794.29-5.65L794.29-5.65L794.29-5.65Q801.75-5.65 805.58-2.51L805.58-2.51L805.58-2.51Q809.41 0.62 809.41 7.23L809.41 7.23L809.41 7.23Q809.41 9.91 808.55 11.99L808.55 11.99L808.55 11.99Q807.69 14.07 806.18 15.60L806.18 15.60L806.18 15.60Q804.67 17.13 802.61 18.16L802.61 18.16L802.61 18.16Q800.56 19.19 798.16 19.83L798.16 19.83L798.16 19.83Q795.77 20.48 793.16 20.74L793.16 20.74L793.16 20.74Q790.56 21.01 787.92 21.01L787.92 21.01L787.92 21.01Q785.29 21.01 782.64 20.72L782.64 20.72L782.64 20.72Q779.98 20.43 777.44 20.00L777.44 20.00L777.44 20.00Q774.91 19.57 772.68 19.02L772.68 19.02L772.68 19.02Q770.46 18.47 768.74 17.94L768.74 17.94L768.74 17.94Q769.41 16.32 770.24 14.69L770.24 14.69L770.24 14.69Q771.08 13.06 772.04 11.63L772.04 11.63L772.04 11.63Q775.05 12.49 779.21 13.30L779.21 13.30L779.21 13.30Q783.38 14.12 788.45 14.12L788.45 14.12L788.45 14.12Q790.75 14.12 792.97 13.83L792.97 13.83L792.97 13.83Q795.20 13.54 796.99 12.75L796.99 12.75L796.99 12.75Q798.79 11.96 799.89 10.65L799.89 10.65L799.89 10.65Q800.99 9.33 800.99 7.23L800.99 7.23L800.99 7.23Q800.99 5.02 800.20 3.83L800.20 3.83L800.20 3.83Q799.41 2.63 798.07 2.06L798.07 2.06L798.07 2.06Q796.73 1.48 794.91 1.39L794.91 1.39L794.91 1.39Q793.09 1.29 791.08 1.29L791.08 1.29L784.81 1.29L784.81 1.29Q781.99 1.29 779.50 0.86L779.50 0.86L779.50 0.86Q777.01 0.43 775.15-0.60L775.15-0.60L775.15-0.60Q773.28-1.63 772.20-3.30L772.20-3.30L772.20-3.30Q771.13-4.98 771.13-7.42L771.13-7.42L771.13-7.42Q771.13-9.76 771.99-12.27L771.99-12.27L771.99-12.27Q772.85-14.79 774.24-17.37L774.24-17.37L774.24-17.37Q771.08-19.67 769.38-23.45L769.38-23.45L769.38-23.45Q767.68-27.23 767.68-32.16L767.68-32.16L767.68-32.16Q767.68-36.65 769.09-40.12L769.09-40.12L769.09-40.12Q770.51-43.59 773.09-46.03L773.09-46.03L773.09-46.03Q775.67-48.47 779.26-49.67L779.26-49.67L779.26-49.67Q782.85-50.87 787.35-50.87L787.35-50.87L787.35-50.87Q791.56-50.87 795.10-49.77L795.10-49.77ZM787.35-44.26L787.35-44.26L787.35-44.26Q784.33-44.26 782.18-43.35L782.18-43.35L782.18-43.35Q780.03-42.44 778.66-40.84L778.66-40.84L778.66-40.84Q777.30-39.24 776.65-37.01L776.65-37.01L776.65-37.01Q776.01-34.79 776.01-32.16L776.01-32.16L776.01-32.16Q776.01-29.48 776.65-27.28L776.65-27.28L776.65-27.28Q777.30-25.07 778.69-23.47L778.69-23.47L778.69-23.47Q780.08-21.87 782.21-20.98L782.21-20.98L782.21-20.98Q784.33-20.10 787.35-20.10L787.35-20.10L787.35-20.10Q790.36-20.10 792.52-20.98L792.52-20.98L792.52-20.98Q794.67-21.87 796.03-23.47L796.03-23.47L796.03-23.47Q797.40-25.07 798.04-27.30L798.04-27.30L798.04-27.30Q798.69-29.52 798.69-32.16L798.69-32.16L798.69-32.16Q798.69-34.79 798.04-37.01L798.04-37.01L798.04-37.01Q797.40-39.24 796.03-40.84L796.03-40.84L796.03-40.84Q794.67-42.44 792.52-43.35L792.52-43.35L792.52-43.35Q790.36-44.26 787.35-44.26ZM824.91 0L824.91-68.91L833.14-68.91L833.14-38.90L833.14-38.90Q836.35-44.36 840.42-47.42L840.42-47.42L840.42-47.42Q845.06-50.87 849.65-50.87L849.65-50.87L849.65-50.87Q856.54-50.87 860.37-47.42L860.37-47.42L860.37-47.42Q863.67-44.45 864.92-38.47L864.92-38.47L864.92-38.47Q865.87-33.93 865.87-26.22L865.87-26.22L865.87 0L857.64 0L857.64-28.52L857.64-28.52Q857.64-31.44 857.50-33.33L857.50-33.33L857.50-33.33Q857.36-35.22 856.81-37.30L856.81-37.30L856.81-37.30Q856.26-39.38 855.23-40.55L855.23-40.55L855.23-40.55Q854.20-41.73 852.36-42.49L852.36-42.49L852.36-42.49Q850.51-43.26 847.88-43.26L847.88-43.26L847.88-43.26Q843.34-43.26 839.13-38.95L839.13-38.95L839.13-38.95Q836.45-36.22 833.14-30.63L833.14-30.63L833.14 0L824.91 0ZM884.44-49.77L884.44-61.15L892.67-61.15L892.67-49.77L909.42-49.77L909.42-42.83L892.67-42.83L892.67-14.26L892.67-14.26Q892.67-11.39 892.84-9.88L892.84-9.88L892.84-9.88Q893.01-8.37 893.68-7.51L893.68-7.51L893.68-7.51Q894.92-5.79 898.70-5.79L898.70-5.79L898.70-5.79Q900.81-5.79 902.77-6.22L902.77-6.22L902.77-6.22Q904.78-6.65 906.45-7.18L906.45-7.18L906.45-7.18Q907.79-4.26 908.89-0.77L908.89-0.77L908.89-0.77Q903.25 1.15 897.50 1.15L897.50 1.15L897.50 1.15Q893.34 1.15 890.83 0.22L890.83 0.22L890.83 0.22Q888.32-0.72 886.88-2.82L886.88-2.82L886.88-2.82Q885.40-5.02 884.92-8.09L884.92-8.09L884.92-8.09Q884.44-11.15 884.44-16.56L884.44-16.56L884.44-42.83L877.26-42.83L877.26-49.77L884.44-49.77ZM953.97-8.47L956.03-1.77L956.03-1.77Q952.29-0.48 948.06 0.33L948.06 0.33L948.06 0.33Q943.82 1.15 940.04 1.15L940.04 1.15L940.04 1.15Q934.30 1.15 930.09-0.53L930.09-0.53L930.09-0.53Q925.88-2.20 923.13-5.41L923.13-5.41L923.13-5.41Q920.38-8.61 919.04-13.28L919.04-13.28L919.04-13.28Q917.70-17.94 917.70-23.93L917.70-23.93L917.70-23.93Q917.70-30.43 919.35-35.46L919.35-35.46L919.35-35.46Q921.00-40.48 924.13-43.90L924.13-43.90L924.13-43.90Q927.27-47.33 931.79-49.10L931.79-49.10L931.79-49.10Q936.31-50.87 942.05-50.87L942.05-50.87L942.05-50.87Q944.97-50.87 947.99-50.27L947.99-50.27L947.99-50.27Q951.00-49.67 954.11-48.76L954.11-48.76L952.05-42.06L952.05-42.06Q949.57-42.88 947.44-43.35L947.44-43.35L947.44-43.35Q945.31-43.83 942.96-43.83L942.96-43.83L942.96-43.83Q934.83-43.83 930.43-39.12L930.43-39.12L930.43-39.12Q926.02-34.41 926.02-24.88L926.02-24.88L926.02-24.88Q926.02-20.43 926.67-16.92L926.67-16.92L926.67-16.92Q927.32-13.40 928.97-10.93L928.97-10.93L928.97-10.93Q930.62-8.47 933.46-7.18L933.46-7.18L933.46-7.18Q936.31-5.89 940.71-5.89L940.71-5.89L940.71-5.89Q943.58-5.89 946.91-6.63L946.91-6.63L946.91-6.63Q950.24-7.37 953.97-8.47L953.97-8.47ZM974.69-68.81L974.69-19.33L974.69-19.33Q974.69-15.41 974.78-12.75L974.78-12.75L974.78-12.75Q974.88-10.10 975.02-8.09L975.02-8.09L975.02-8.09Q975.17-6.08 975.48-4.45L975.48-4.45L975.48-4.45Q975.79-2.82 976.27-0.86L976.27-0.86L976.27-0.86Q974.26-0.33 972.25 0.12L972.25 0.12L972.25 0.12Q970.24 0.57 968.23 0.91L968.23 0.91L968.23 0.91Q967.27-2.20 966.86-4.79L966.86-4.79L966.86-4.79Q966.46-7.37 966.46-9.86L966.46-9.86L966.46-68.81L974.69-68.81ZM1031.68-0.86L1031.68-0.86L1023.74 0.91L1023.74 0.91Q1022.83-1.96 1022.44-4.64L1022.44-4.64L1022.44-4.64Q1022.25-5.89 1021.97-9.71L1021.97-9.71L1020.96-9.71L1020.96-9.71Q1018.33-4.88 1014.45-2.01L1014.45-2.01L1014.45-2.01Q1010.19 1.15 1005.46 1.15L1005.46 1.15L1005.46 1.15Q998.33 1.15 994.59-2.30L994.59-2.30L994.59-2.30Q991.39-5.22 990.14-11.25L990.14-11.25L990.14-11.25Q989.33-15.36 989.33-23.50L989.33-23.50L989.33-49.77L997.56-49.77L997.56-21.20L997.56-21.20Q997.56-14.07 998.95-11.01L998.95-11.01L998.95-11.01Q1001.01-6.46 1007.23-6.46L1007.23-6.46L1007.23-6.46Q1011.63-6.46 1015.84-10.67L1015.84-10.67L1015.84-10.67Q1018.66-13.49 1021.87-18.95L1021.87-18.95L1021.87-49.77L1030.10-49.77L1030.10-19.04L1030.10-19.04Q1030.10-12.68 1030.44-7.99L1030.44-7.99L1030.44-7.99Q1030.63-5.07 1031.68-0.86ZM1046.32-0.38L1046.32-68.91L1054.55-68.91L1054.55-40.24L1055.56-40.15L1055.56-40.15Q1057.81-45.12 1060.87-47.71L1060.87-47.71L1060.87-47.71Q1064.41-50.87 1069.43-50.87L1069.43-50.87L1069.43-50.87Q1078.19-50.87 1082.83-43.50L1082.83-43.50L1082.83-43.50Q1087.00-36.65 1087.00-25.84L1087.00-25.84L1087.00-25.84Q1087.00-12.68 1080.73-5.55L1080.73-5.55L1080.73-5.55Q1074.75 1.15 1063.02 1.15L1063.02 1.15L1063.02 1.15Q1056.61 1.15 1046.32-0.38L1046.32-0.38ZM1054.07-29.38L1054.07-29.38L1054.07-6.79L1054.07-6.79Q1058.48-5.89 1063.02-5.89L1063.02-5.89L1063.02-5.89Q1070.77-5.89 1074.65-10.43L1074.65-10.43L1074.65-10.43Q1078.67-15.12 1078.67-24.36L1078.67-24.36L1078.67-24.36Q1078.67-32.73 1076.85-37.28L1076.85-37.28L1076.85-37.28Q1074.46-43.26 1068.72-43.26L1068.72-43.26L1068.72-43.26Q1063.69-43.26 1059.86-39.05L1059.86-39.05L1059.86-39.05Q1057.18-36.18 1054.07-29.38Z" fill="#59569f"></path></g></g><style>text {
  font-size: 64px;
  font-family: Arial Black;
  dominant-baseline: central;
  text-anchor: middle;
}</style></svg>