<svg width="1511.32490234375px" height="196.41746826171874px" xmlns="http://www.w3.org/2000/svg" viewBox="-505.662451171875 -23.20873413085937 1511.32490234375 196.41746826171874" style="background: rgba(0, 0, 0, 0);" preserveAspectRatio="xMidYMid"><defs><filter id="editing-vr"><feFlood flood-color="#f00" flood-opacity="0.7" result="c1"></feFlood><feFlood flood-color="#00f" flood-opacity="0.7" result="c3"></feFlood><feComposite operator="in" in="c1" in2="SourceAlpha" result="text-c1"></feComposite><feComposite operator="in" in="c3" in2="SourceAlpha" result="text-c3"></feComposite><feOffset in="text-c1" dx="5" dy="-1" result="text1"></feOffset><feOffset in="text-c3" dx="-5" dy="1" result="text3"></feOffset><feBlend in="SourceGraphic" in2="text1" mode="multiply" result="text4"></feBlend><feBlend in="text4" in2="text3" mode="multiply"></feBlend></filter></defs><g filter="url(#editing-vr)"><g transform="translate(-300.7700023651123, 121.6150016784668)"><path d="M8.58-66.70L29.46-66.70L29.46-66.70Q34.05-66.70 38.04-65.71L38.04-65.71L38.04-65.71Q42.03-64.71 44.97-62.46L44.97-62.46L44.97-62.46Q47.92-60.21 49.61-56.59L49.61-56.59L49.61-56.59Q51.30-52.97 51.30-47.78L51.30-47.78L51.30-47.78Q51.30-41.98 49.36-38.32L49.36-38.32L49.36-38.32Q47.41-34.65 44.09-32.52L44.09-32.52L44.09-32.52Q40.77-30.38 36.39-29.59L36.39-29.59L36.39-29.59Q32.01-28.81 27.14-28.81L27.14-28.81L27.14-28.81Q24.49-28.81 21.96-28.99L21.96-28.99L21.96-28.99Q19.44-29.18 17.21-29.41L17.21-29.41L17.21 0L8.58 0L8.58-66.70ZM17.21-59.75L17.21-36.37L17.21-36.37Q19.44-36.09 21.87-35.93L21.87-35.93L21.87-35.93Q24.31-35.76 26.77-35.76L26.77-35.76L26.77-35.76Q30.29-35.76 33.24-36.20L33.24-36.20L33.24-36.20Q36.18-36.65 38.27-37.94L38.27-37.94L38.27-37.94Q40.36-39.24 41.52-41.61L41.52-41.61L41.52-41.61Q42.68-43.97 42.68-47.78L42.68-47.78L42.68-47.78Q42.68-51.26 41.70-53.55L41.70-53.55L41.70-53.55Q40.73-55.85 38.99-57.24L38.99-57.24L38.99-57.24Q37.25-58.63 34.81-59.19L34.81-59.19L34.81-59.19Q32.38-59.75 29.46-59.75L29.46-59.75L17.21-59.75ZM67.17-39.71L67.17-39.71L65.13-46.20L65.13-46.20Q72.92-49.31 81.46-49.31L81.46-49.31L81.46-49.31Q88.92-49.31 92.87-46.80L92.87-46.80L92.87-46.80Q97.37-43.93 97.37-37.02L97.37-37.02L97.37-18.04L97.37-18.04Q97.37-14.24 97.46-10.25L97.46-10.25L97.46-10.25Q97.50-7.89 97.92-5.33L97.92-5.33L97.92-5.33Q98.29-2.92 98.90-0.74L98.90-0.74L91.29 0.93L91.29 0.93Q90.22-2.18 89.94-6.03L89.94-6.03L89.02-6.12L89.02-6.12Q83.26 1.11 74.36 1.11L74.36 1.11L74.36 1.11Q67.86 1.11 63.92-2.48L63.92-2.48L63.92-2.48Q59.98-6.08 59.98-12.62L59.98-12.62L59.98-12.62Q59.98-17.49 62.14-20.60L62.14-20.60L62.14-20.60Q64.29-23.70 68.23-25.84L68.23-25.84L68.23-25.84Q74.45-29.22 85.63-29.22L85.63-29.22L85.63-29.22Q87.11-29.22 89.62-29.13L89.62-29.13L89.62-36.18L89.62-36.18Q89.62-39.52 87.58-41.01L87.58-41.01L87.58-41.01Q85.54-42.49 81.18-42.49L81.18-42.49L81.18-42.49Q74.82-42.49 67.17-39.71ZM89.62-13.54L89.62-13.54L89.62-23.29L89.62-23.29Q88.37-23.38 85.95-23.38L85.95-23.38L85.95-23.38Q81.87-23.38 78.44-22.68L78.44-22.68L78.44-22.68Q73.34-21.66 70.53-19.46L70.53-19.46L70.53-19.46Q67.72-17.26 67.72-13.13L67.72-13.13L67.72-13.13Q67.72-5.71 75.80-5.71L75.80-5.71L75.80-5.71Q79.97-5.71 83.59-7.93L83.59-7.93L83.59-7.93Q86.56-9.79 89.62-13.54ZM120.88-37.06L121.30-37.06L121.30-37.06Q122.74-39.94 124.39-42.26L124.39-42.26L124.39-42.26Q126.03-44.58 128.03-46.20L128.03-46.20L128.03-46.20Q129.84-47.78 132.02-48.54L132.02-48.54L132.02-48.54Q134.20-49.31 136.98-49.31L136.98-49.31L136.98-49.31Q137.91-49.31 139.14-49.22L139.14-49.22L139.14-49.22Q140.37-49.12 141.48-48.89L141.48-48.89L141.48-48.89Q141.29-46.57 141.04-44.53L141.04-44.53L141.04-44.53Q140.78-42.49 140.37-40.40L140.37-40.40L140.37-40.40Q138.05-40.82 136.12-41.01L136.12-41.01L136.12-41.01Q134.20-41.19 132.48-40.91L132.48-40.91L132.48-40.91Q130.44-40.54 128.93-39.54L128.93-39.54L128.93-39.54Q127.42-38.55 126.15-36.90L126.15-36.90L126.15-36.90Q124.87-35.25 123.67-32.96L123.67-32.96L123.67-32.96Q122.46-30.66 121.02-27.69L121.02-27.69L121.02 0L113.04 0L113.04-29.73L113.04-29.73Q113.04-32.66 112.97-34.88L112.97-34.88L112.97-34.88Q112.91-37.11 112.70-39.13L112.70-39.13L112.70-39.13Q112.49-41.15 112.07-43.12L112.07-43.12L112.07-43.12Q111.65-45.09 110.96-47.50L110.96-47.50L110.96-47.50Q112.91-48.01 114.78-48.43L114.78-48.43L114.78-48.43Q116.66-48.85 118.61-49.22L118.61-49.22L118.61-49.22Q119.26-47.36 119.65-45.92L119.65-45.92L119.65-45.92Q120.05-44.48 120.28-43.12L120.28-43.12L120.28-43.12Q120.51-41.75 120.63-40.33L120.63-40.33L120.63-40.33Q120.74-38.92 120.88-37.06L120.88-37.06ZM155.53-48.24L155.53-59.28L163.51-59.28L163.51-48.24L179.75-48.24L179.75-41.52L163.51-41.52L163.51-13.82L163.51-13.82Q163.51-11.04 163.68-9.58L163.68-9.58L163.68-9.58Q163.84-8.12 164.49-7.28L164.49-7.28L164.49-7.28Q165.69-5.61 169.36-5.61L169.36-5.61L169.36-5.61Q171.40-5.61 173.30-6.03L173.30-6.03L173.30-6.03Q175.25-6.45 176.87-6.96L176.87-6.96L176.87-6.96Q178.17-4.13 179.24-0.74L179.24-0.74L179.24-0.74Q173.76 1.11 168.20 1.11L168.20 1.11L168.20 1.11Q164.16 1.11 161.73 0.21L161.73 0.21L161.73 0.21Q159.29-0.70 157.90-2.74L157.90-2.74L157.90-2.74Q156.46-4.87 156.00-7.84L156.00-7.84L156.00-7.84Q155.53-10.81 155.53-16.05L155.53-16.05L155.53-41.52L148.58-41.52L148.58-48.24L155.53-48.24ZM222.29-48.24L230.26-48.24L230.26 1.07L230.26 1.07Q230.26 5.66 228.76 9.00L228.76 9.00L228.76 9.00Q227.25 12.34 224.58 14.52L224.58 14.52L224.58 14.52Q221.91 16.70 218.25 17.74L218.25 17.74L218.25 17.74Q214.58 18.79 210.27 18.79L210.27 18.79L210.27 18.79Q206.37 18.79 202.43 18.11L202.43 18.11L202.43 18.11Q198.49 17.44 194.92 16.24L194.92 16.24L194.92 16.24Q195.52 14.61 196.17 13.08L196.17 13.08L196.17 13.08Q196.82 11.55 197.47 10.02L197.47 10.02L197.47 10.02Q198.58 10.39 200.14 10.81L200.14 10.81L200.14 10.81Q201.69 11.23 203.43 11.57L203.43 11.57L203.43 11.57Q205.17 11.92 207.00 12.13L207.00 12.13L207.00 12.13Q208.83 12.34 210.55 12.34L210.55 12.34L210.55 12.34Q213.24 12.34 215.42 11.62L215.42 11.62L215.42 11.62Q217.60 10.90 219.13 9.46L219.13 9.46L219.13 9.46Q220.66 8.02 221.47 5.91L221.47 5.91L221.47 5.91Q222.29 3.80 222.29 1.07L222.29 1.07L222.29-9.42L221.40-9.42L221.40-9.42Q220.20-7.24 218.62-5.31L218.62-5.31L218.62-5.31Q217.04-3.39 215.14-1.95L215.14-1.95L215.14-1.95Q213.24-0.51 211.04 0.30L211.04 0.30L211.04 0.30Q208.83 1.11 206.37 1.11L206.37 1.11L206.37 1.11Q202.99 1.11 200.48 0.35L200.48 0.35L200.48 0.35Q197.98-0.42 196.19-1.93L196.19-1.93L196.19-1.93Q194.41-3.43 193.27-5.68L193.27-5.68L193.27-5.68Q192.13-7.93 191.53-10.90L191.53-10.90L191.53-10.90Q191.02-13.54 190.88-16.56L190.88-16.56L190.88-16.56Q190.74-19.58 190.74-22.78L190.74-22.78L190.74-48.24L198.72-48.24L198.72-20.55L198.72-20.55Q198.72-17.53 199.00-14.91L199.00-14.91L199.00-14.91Q199.28-12.29 200.23-10.37L200.23-10.37L200.23-10.37Q201.18-8.44 203.03-7.35L203.03-7.35L203.03-7.35Q204.89-6.26 208.09-6.26L208.09-6.26L208.09-6.26Q210.46-6.26 212.54-7.40L212.54-7.40L212.54-7.40Q214.63-8.54 216.39-10.30L216.39-10.30L216.39-10.30Q218.16-12.06 219.62-14.19L219.62-14.19L219.62-14.19Q221.08-16.33 222.29-18.37L222.29-18.37L222.29-48.24ZM276.00 6.08L276.00-72.87L283.19-72.87L283.19 6.08L276.00 6.08ZM354.86-10.62L374.48-66.70L383.62-66.70L358.71 0.09L350.96 0.09L326.01-66.70L335.14-66.70L354.86-10.62ZM401.34-66.94L401.34-66.94L401.34-66.94Q403.47-66.94 405.05-65.45L405.05-65.45L405.05-65.45Q406.58-63.83 406.58-61.65L406.58-61.65L406.58-61.65Q406.58-59.42 405.05-57.89L405.05-57.89L405.05-57.89Q403.47-56.31 401.34-56.31L401.34-56.31L401.34-56.31Q399.11-56.31 397.53-57.89L397.53-57.89L397.53-57.89Q395.96-59.38 395.96-61.65L395.96-61.65L395.96-61.65Q395.96-63.87 397.53-65.45L397.53-65.45L397.53-65.45Q399.11-66.94 401.34-66.94ZM397.26 0L397.26-48.24L405.23-48.24L405.23 0L397.26 0ZM430.10-37.06L430.52-37.06L430.52-37.06Q431.95-39.94 433.60-42.26L433.60-42.26L433.60-42.26Q435.25-44.58 437.24-46.20L437.24-46.20L437.24-46.20Q439.05-47.78 441.23-48.54L441.23-48.54L441.23-48.54Q443.41-49.31 446.19-49.31L446.19-49.31L446.19-49.31Q447.12-49.31 448.35-49.22L448.35-49.22L448.35-49.22Q449.58-49.12 450.69-48.89L450.69-48.89L450.69-48.89Q450.51-46.57 450.25-44.53L450.25-44.53L450.25-44.53Q450.00-42.49 449.58-40.40L449.58-40.40L449.58-40.40Q447.26-40.82 445.34-41.01L445.34-41.01L445.34-41.01Q443.41-41.19 441.69-40.91L441.69-40.91L441.69-40.91Q439.65-40.54 438.15-39.54L438.15-39.54L438.15-39.54Q436.64-38.55 435.36-36.90L435.36-36.90L435.36-36.90Q434.09-35.25 432.88-32.96L432.88-32.96L432.88-32.96Q431.67-30.66 430.24-27.69L430.24-27.69L430.24 0L422.26 0L422.26-29.73L422.26-29.73Q422.26-32.66 422.19-34.88L422.19-34.88L422.19-34.88Q422.12-37.11 421.91-39.13L421.91-39.13L421.91-39.13Q421.70-41.15 421.28-43.12L421.28-43.12L421.28-43.12Q420.87-45.09 420.17-47.50L420.17-47.50L420.17-47.50Q422.12-48.01 424.00-48.43L424.00-48.43L424.00-48.43Q425.88-48.85 427.82-49.22L427.82-49.22L427.82-49.22Q428.47-47.36 428.87-45.92L428.87-45.92L428.87-45.92Q429.26-44.48 429.49-43.12L429.49-43.12L429.49-43.12Q429.73-41.75 429.84-40.33L429.84-40.33L429.84-40.33Q429.96-38.92 430.10-37.06L430.10-37.06ZM464.75-48.24L464.75-59.28L472.73-59.28L472.73-48.24L488.96-48.24L488.96-41.52L472.73-41.52L472.73-13.82L472.73-13.82Q472.73-11.04 472.89-9.58L472.89-9.58L472.89-9.58Q473.05-8.12 473.70-7.28L473.70-7.28L473.70-7.28Q474.91-5.61 478.57-5.61L478.57-5.61L478.57-5.61Q480.61-5.61 482.51-6.03L482.51-6.03L482.51-6.03Q484.46-6.45 486.09-6.96L486.09-6.96L486.09-6.96Q487.39-4.13 488.45-0.74L488.45-0.74L488.45-0.74Q482.98 1.11 477.41 1.11L477.41 1.11L477.41 1.11Q473.38 1.11 470.94 0.21L470.94 0.21L470.94 0.21Q468.51-0.70 467.11-2.74L467.11-2.74L467.11-2.74Q465.68-4.87 465.21-7.84L465.21-7.84L465.21-7.84Q464.75-10.81 464.75-16.05L464.75-16.05L464.75-41.52L457.79-41.52L457.79-48.24L464.75-48.24ZM540.31-0.83L540.31-0.83L532.61 0.88L532.61 0.88Q531.73-1.90 531.36-4.50L531.36-4.50L531.36-4.50Q531.17-5.71 530.90-9.42L530.90-9.42L529.92-9.42L529.92-9.42Q527.37-4.73 523.61-1.95L523.61-1.95L523.61-1.95Q519.48 1.11 514.89 1.11L514.89 1.11L514.89 1.11Q507.98 1.11 504.36-2.23L504.36-2.23L504.36-2.23Q501.25-5.06 500.05-10.90L500.05-10.90L500.05-10.90Q499.26-14.89 499.26-22.78L499.26-22.78L499.26-48.24L507.24-48.24L507.24-20.55L507.24-20.55Q507.24-13.64 508.58-10.67L508.58-10.67L508.58-10.67Q510.58-6.26 516.61-6.26L516.61-6.26L516.61-6.26Q520.88-6.26 524.96-10.34L524.96-10.34L524.96-10.34Q527.70-13.08 530.80-18.37L530.80-18.37L530.80-48.24L538.78-48.24L538.78-18.46L538.78-18.46Q538.78-12.29 539.11-7.75L539.11-7.75L539.11-7.75Q539.29-4.92 540.31-0.83ZM556.97-39.71L556.97-39.71L554.92-46.20L554.92-46.20Q562.72-49.31 571.25-49.31L571.25-49.31L571.25-49.31Q578.72-49.31 582.66-46.80L582.66-46.80L582.66-46.80Q587.16-43.93 587.16-37.02L587.16-37.02L587.16-18.04L587.16-18.04Q587.16-14.24 587.26-10.25L587.26-10.25L587.26-10.25Q587.30-7.89 587.72-5.33L587.72-5.33L587.72-5.33Q588.09-2.92 588.69-0.74L588.69-0.74L581.09 0.93L581.09 0.93Q580.02-2.18 579.74-6.03L579.74-6.03L578.81-6.12L578.81-6.12Q573.06 1.11 564.16 1.11L564.16 1.11L564.16 1.11Q557.66 1.11 553.72-2.48L553.72-2.48L553.72-2.48Q549.78-6.08 549.78-12.62L549.78-12.62L549.78-12.62Q549.78-17.49 551.93-20.60L551.93-20.60L551.93-20.60Q554.09-23.70 558.03-25.84L558.03-25.84L558.03-25.84Q564.25-29.22 575.43-29.22L575.43-29.22L575.43-29.22Q576.91-29.22 579.42-29.13L579.42-29.13L579.42-36.18L579.42-36.18Q579.42-39.52 577.38-41.01L577.38-41.01L577.38-41.01Q575.33-42.49 570.97-42.49L570.97-42.49L570.97-42.49Q564.62-42.49 556.97-39.71ZM579.42-13.54L579.42-13.54L579.42-23.29L579.42-23.29Q578.16-23.38 575.75-23.38L575.75-23.38L575.75-23.38Q571.67-23.38 568.24-22.68L568.24-22.68L568.24-22.68Q563.13-21.66 560.33-19.46L560.33-19.46L560.33-19.46Q557.52-17.26 557.52-13.13L557.52-13.13L557.52-13.13Q557.52-5.71 565.59-5.71L565.59-5.71L565.59-5.71Q569.77-5.71 573.39-7.93L573.39-7.93L573.39-7.93Q576.35-9.79 579.42-13.54ZM609.10-66.70L609.10-18.74L609.10-18.74Q609.10-14.94 609.20-12.36L609.20-12.36L609.20-12.36Q609.29-9.79 609.43-7.84L609.43-7.84L609.43-7.84Q609.57-5.89 609.87-4.31L609.87-4.31L609.87-4.31Q610.17-2.74 610.63-0.83L610.63-0.83L610.63-0.83Q608.69-0.32 606.74 0.12L606.74 0.12L606.74 0.12Q604.79 0.56 602.84 0.88L602.84 0.88L602.84 0.88Q601.91-2.13 601.52-4.64L601.52-4.64L601.52-4.64Q601.13-7.14 601.13-9.56L601.13-9.56L601.13-66.70L609.10-66.70ZM706.24-66.70L706.24 0.46L696.03 0.46L660.55-55.29L660.55 0L651.83 0L651.83-66.70L662.03-66.70L697.52-10.95L697.52-66.70L706.24-66.70ZM726.97-66.94L726.97-66.94L726.97-66.94Q729.11-66.94 730.68-65.45L730.68-65.45L730.68-65.45Q732.21-63.83 732.21-61.65L732.21-61.65L732.21-61.65Q732.21-59.42 730.68-57.89L730.68-57.89L730.68-57.89Q729.11-56.31 726.97-56.31L726.97-56.31L726.97-56.31Q724.75-56.31 723.17-57.89L723.17-57.89L723.17-57.89Q721.59-59.38 721.59-61.65L721.59-61.65L721.59-61.65Q721.59-63.87 723.17-65.45L723.17-65.45L723.17-65.45Q724.75-66.94 726.97-66.94ZM722.89 0L722.89-48.24L730.87-48.24L730.87 0L722.89 0ZM770.76-48.24L775.03-48.24L775.03-48.24Q777.02-48.24 778.53-48.29L778.53-48.29L778.53-48.29Q780.04-48.33 781.43-48.50L781.43-48.50L781.43-48.50Q782.82-48.66 784.24-48.98L784.24-48.98L784.24-48.98Q785.65-49.31 787.55-49.91L787.55-49.91L787.55-49.91Q788.16-48.15 788.74-46.57L788.74-46.57L788.74-46.57Q789.32-45.00 789.92-43.33L789.92-43.33L789.92-43.33Q788.44-42.77 787.18-42.44L787.18-42.44L787.18-42.44Q785.93-42.12 784.70-41.91L784.70-41.91L784.70-41.91Q783.47-41.70 782.24-41.63L782.24-41.63L782.24-41.63Q781.01-41.56 779.62-41.52L779.62-41.52L779.62-41.52Q780.92-39.43 781.62-36.83L781.62-36.83L781.62-36.83Q782.31-34.23 782.31-31.17L782.31-31.17L782.31-31.17Q782.31-26.72 780.97-23.40L780.97-23.40L780.97-23.40Q779.62-20.09 777.12-17.77L777.12-17.77L777.12-17.77Q774.61-15.45 771.11-14.26L771.11-14.26L771.11-14.26Q767.61-13.08 763.25-13.08L763.25-13.08L763.25-13.08Q761.02-13.08 759.03-13.34L759.03-13.34L759.03-13.34Q757.03-13.59 755.22-14.24L755.22-14.24L755.22-14.24Q754.80-13.13 754.50-11.97L754.50-11.97L754.50-11.97Q754.20-10.81 754.22-9.76L754.22-9.76L754.22-9.76Q754.25-8.72 754.62-7.86L754.62-7.86L754.62-7.86Q754.99-7.00 755.92-6.49L755.92-6.49L755.92-6.49Q756.38-6.22 756.89-6.05L756.89-6.05L756.89-6.05Q757.40-5.89 758.12-5.78L758.12-5.78L758.12-5.78Q758.84-5.66 759.86-5.59L759.86-5.59L759.86-5.59Q760.88-5.52 762.32-5.52L762.32-5.52L762.32-5.52Q763.71-5.47 765.59-5.47L765.59-5.47L765.59-5.47Q767.47-5.47 769.97-5.47L769.97-5.47L769.97-5.47Q777.21-5.47 780.92-2.44L780.92-2.44L780.92-2.44Q784.63 0.60 784.63 7.00L784.63 7.00L784.63 7.00Q784.63 9.60 783.80 11.62L783.80 11.62L783.80 11.62Q782.96 13.64 781.50 15.12L781.50 15.12L781.50 15.12Q780.04 16.61 778.04 17.60L778.04 17.60L778.04 17.60Q776.05 18.60 773.73 19.23L773.73 19.23L773.73 19.23Q771.41 19.85 768.88 20.11L768.88 20.11L768.88 20.11Q766.35 20.36 763.80 20.36L763.80 20.36L763.80 20.36Q761.25 20.36 758.68 20.09L758.68 20.09L758.68 20.09Q756.10 19.81 753.65 19.39L753.65 19.39L753.65 19.39Q751.19 18.97 749.03 18.44L749.03 18.44L749.03 18.44Q746.87 17.91 745.20 17.40L745.20 17.40L745.20 17.40Q745.85 15.82 746.66 14.24L746.66 14.24L746.66 14.24Q747.48 12.66 748.40 11.27L748.40 11.27L748.40 11.27Q751.33 12.11 755.36 12.90L755.36 12.90L755.36 12.90Q759.40 13.68 764.31 13.68L764.31 13.68L764.31 13.68Q766.54 13.68 768.70 13.41L768.70 13.41L768.70 13.41Q770.85 13.13 772.59 12.36L772.59 12.36L772.59 12.36Q774.33 11.60 775.40 10.32L775.40 10.32L775.40 10.32Q776.47 9.05 776.47 7.00L776.47 7.00L776.47 7.00Q776.47 4.87 775.70 3.71L775.70 3.71L775.70 3.71Q774.94 2.55 773.64 1.99L773.64 1.99L773.64 1.99Q772.34 1.44 770.58 1.35L770.58 1.35L770.58 1.35Q768.81 1.25 766.87 1.25L766.87 1.25L760.79 1.25L760.79 1.25Q758.05 1.25 755.64 0.83L755.64 0.83L755.64 0.83Q753.23 0.42 751.42-0.58L751.42-0.58L751.42-0.58Q749.61-1.58 748.57-3.20L748.57-3.20L748.57-3.20Q747.52-4.82 747.52-7.19L747.52-7.19L747.52-7.19Q747.52-9.46 748.36-11.90L748.36-11.90L748.36-11.90Q749.19-14.33 750.54-16.84L750.54-16.84L750.54-16.84Q747.48-19.06 745.83-22.73L745.83-22.73L745.83-22.73Q744.18-26.39 744.18-31.17L744.18-31.17L744.18-31.17Q744.18-35.53 745.55-38.90L745.55-38.90L745.55-38.90Q746.92-42.26 749.42-44.62L749.42-44.62L749.42-44.62Q751.93-46.99 755.41-48.15L755.41-48.15L755.41-48.15Q758.89-49.31 763.25-49.31L763.25-49.31L763.25-49.31Q767.33-49.31 770.76-48.24L770.76-48.24ZM763.25-42.91L763.25-42.91L763.25-42.91Q760.32-42.91 758.24-42.03L758.24-42.03L758.24-42.03Q756.15-41.15 754.83-39.59L754.83-39.59L754.83-39.59Q753.51-38.04 752.88-35.88L752.88-35.88L752.88-35.88Q752.25-33.72 752.25-31.17L752.25-31.17L752.25-31.17Q752.25-28.57 752.88-26.44L752.88-26.44L752.88-26.44Q753.51-24.31 754.85-22.75L754.85-22.75L754.85-22.75Q756.20-21.20 758.26-20.34L758.26-20.34L758.26-20.34Q760.32-19.48 763.25-19.48L763.25-19.48L763.25-19.48Q766.17-19.48 768.26-20.34L768.26-20.34L768.26-20.34Q770.34-21.20 771.67-22.75L771.67-22.75L771.67-22.75Q772.99-24.31 773.61-26.46L773.61-26.46L773.61-26.46Q774.24-28.62 774.24-31.17L774.24-31.17L774.24-31.17Q774.24-33.72 773.61-35.88L773.61-35.88L773.61-35.88Q772.99-38.04 771.67-39.59L771.67-39.59L771.67-39.59Q770.34-41.15 768.26-42.03L768.26-42.03L768.26-42.03Q766.17-42.91 763.25-42.91ZM799.66 0L799.66-66.80L807.64-66.80L807.64-37.71L807.64-37.71Q810.75-43.00 814.69-45.97L814.69-45.97L814.69-45.97Q819.19-49.31 823.64-49.31L823.64-49.31L823.64-49.31Q830.32-49.31 834.03-45.97L834.03-45.97L834.03-45.97Q837.23-43.09 838.44-37.29L838.44-37.29L838.44-37.29Q839.37-32.89 839.37-25.42L839.37-25.42L839.37 0L831.39 0L831.39-27.65L831.39-27.65Q831.39-30.48 831.25-32.31L831.25-32.31L831.25-32.31Q831.11-34.14 830.58-36.16L830.58-36.16L830.58-36.16Q830.04-38.18 829.05-39.31L829.05-39.31L829.05-39.31Q828.05-40.45 826.26-41.19L826.26-41.19L826.26-41.19Q824.48-41.93 821.93-41.93L821.93-41.93L821.93-41.93Q817.52-41.93 813.44-37.76L813.44-37.76L813.44-37.76Q810.84-35.11 807.64-29.69L807.64-29.69L807.64 0L799.66 0ZM857.37-48.24L857.37-59.28L865.34-59.28L865.34-48.24L881.58-48.24L881.58-41.52L865.34-41.52L865.34-13.82L865.34-13.82Q865.34-11.04 865.51-9.58L865.51-9.58L865.51-9.58Q865.67-8.12 866.32-7.28L866.32-7.28L866.32-7.28Q867.52-5.61 871.19-5.61L871.19-5.61L871.19-5.61Q873.23-5.61 875.13-6.03L875.13-6.03L875.13-6.03Q877.08-6.45 878.70-6.96L878.70-6.96L878.70-6.96Q880.00-4.13 881.07-0.74L881.07-0.74L881.07-0.74Q875.60 1.11 870.03 1.11L870.03 1.11L870.03 1.11Q865.99 1.11 863.56 0.21L863.56 0.21L863.56 0.21Q861.12-0.70 859.73-2.74L859.73-2.74L859.73-2.74Q858.29-4.87 857.83-7.84L857.83-7.84L857.83-7.84Q857.37-10.81 857.37-16.05L857.37-16.05L857.37-41.52L850.41-41.52L850.41-48.24L857.37-48.24ZM963.64-9.05L965.82-1.90L965.82-1.90Q961.50-0.56 956.70 0.28L956.70 0.28L956.70 0.28Q951.90 1.11 946.15 1.11L946.15 1.11L946.15 1.11Q931.96 1.11 924.72-7.38L924.72-7.38L924.72-7.38Q917.48-15.86 917.48-32.38L917.48-32.38L917.48-32.38Q917.48-49.91 924.72-58.82L924.72-58.82L924.72-58.82Q931.96-67.72 946.15-67.72L946.15-67.72L946.15-67.72Q951.53-67.72 955.82-66.80L955.82-66.80L955.82-66.80Q960.11-65.87 964.10-64.38L964.10-64.38L961.69-57.52L961.69-57.52Q959.79-58.22 957.93-58.77L957.93-58.77L957.93-58.77Q956.08-59.33 954.20-59.70L954.20-59.70L954.20-59.70Q952.32-60.07 950.32-60.26L950.32-60.26L950.32-60.26Q948.33-60.44 946.15-60.44L946.15-60.44L946.15-60.44Q941.00-60.44 937.29-58.61L937.29-58.61L937.29-58.61Q933.58-56.78 931.17-53.28L931.17-53.28L931.17-53.28Q928.75-49.77 927.60-44.74L927.60-44.74L927.60-44.74Q926.44-39.71 926.44-33.31L926.44-33.31L926.44-33.31Q926.44-26.72 927.60-21.66L927.60-21.66L927.60-21.66Q928.75-16.61 931.17-13.15L931.17-13.15L931.17-13.15Q933.58-9.69 937.29-7.93L937.29-7.93L937.29-7.93Q941.00-6.17 946.15-6.17L946.15-6.17L946.15-6.17Q950.88-6.17 955.15-6.96L955.15-6.96L955.15-6.96Q959.42-7.75 963.64-9.05L963.64-9.05ZM984.09-66.70L984.09-18.74L984.09-18.74Q984.09-14.94 984.19-12.36L984.19-12.36L984.19-12.36Q984.28-9.79 984.42-7.84L984.42-7.84L984.42-7.84Q984.56-5.89 984.86-4.31L984.86-4.31L984.86-4.31Q985.16-2.74 985.63-0.83L985.63-0.83L985.63-0.83Q983.68-0.32 981.73 0.12L981.73 0.12L981.73 0.12Q979.78 0.56 977.83 0.88L977.83 0.88L977.83 0.88Q976.90-2.13 976.51-4.64L976.51-4.64L976.51-4.64Q976.12-7.14 976.12-9.56L976.12-9.56L976.12-66.70L984.09-66.70ZM1039.34-0.83L1039.34-0.83L1031.64 0.88L1031.64 0.88Q1030.76-1.90 1030.39-4.50L1030.39-4.50L1030.39-4.50Q1030.20-5.71 1029.92-9.42L1029.92-9.42L1028.95-9.42L1028.95-9.42Q1026.40-4.73 1022.64-1.95L1022.64-1.95L1022.64-1.95Q1018.51 1.11 1013.92 1.11L1013.92 1.11L1013.92 1.11Q1007.01 1.11 1003.39-2.23L1003.39-2.23L1003.39-2.23Q1000.28-5.06 999.08-10.90L999.08-10.90L999.08-10.90Q998.29-14.89 998.29-22.78L998.29-22.78L998.29-48.24L1006.27-48.24L1006.27-20.55L1006.27-20.55Q1006.27-13.64 1007.61-10.67L1007.61-10.67L1007.61-10.67Q1009.61-6.26 1015.64-6.26L1015.64-6.26L1015.64-6.26Q1019.90-6.26 1023.99-10.34L1023.99-10.34L1023.99-10.34Q1026.72-13.08 1029.83-18.37L1029.83-18.37L1029.83-48.24L1037.81-48.24L1037.81-18.46L1037.81-18.46Q1037.81-12.29 1038.13-7.75L1038.13-7.75L1038.13-7.75Q1038.32-4.92 1039.34-0.83ZM1053.54-0.37L1053.54-66.80L1061.51-66.80L1061.51-39.01L1062.49-38.92L1062.49-38.92Q1064.67-43.74 1067.64-46.25L1067.64-46.25L1067.64-46.25Q1071.07-49.31 1075.94-49.31L1075.94-49.31L1075.94-49.31Q1084.43-49.31 1088.93-42.17L1088.93-42.17L1088.93-42.17Q1092.96-35.53 1092.96-25.05L1092.96-25.05L1092.96-25.05Q1092.96-12.29 1086.89-5.38L1086.89-5.38L1086.89-5.38Q1081.09 1.11 1069.72 1.11L1069.72 1.11L1069.72 1.11Q1063.51 1.11 1053.54-0.37L1053.54-0.37ZM1061.05-28.48L1061.05-28.48L1061.05-6.59L1061.05-6.59Q1065.32-5.71 1069.72-5.71L1069.72-5.71L1069.72-5.71Q1077.24-5.71 1081.00-10.11L1081.00-10.11L1081.00-10.11Q1084.89-14.66 1084.89-23.61L1084.89-23.61L1084.89-23.61Q1084.89-31.73 1083.13-36.14L1083.13-36.14L1083.13-36.14Q1080.81-41.93 1075.24-41.93L1075.24-41.93L1075.24-41.93Q1070.37-41.93 1066.66-37.85L1066.66-37.85L1066.66-37.85Q1064.06-35.07 1061.05-28.48Z" fill="#444"></path></g></g><style>text {
  font-size: 64px;
  font-family: Arial Black;
  dominant-baseline: central;
  text-anchor: middle;
}</style></svg>