<svg width="1223.8974365234374px" height="183.2px" xmlns="http://www.w3.org/2000/svg" viewBox="-361.9487182617187 -16.599999999999994 1223.8974365234374 183.2" style="background: rgba(0, 0, 0, 0);" preserveAspectRatio="xMidYMid"><defs><filter id="editing-vr"><feFlood flood-color="#f00" flood-opacity="0.7" result="c1"></feFlood><feFlood flood-color="#00f" flood-opacity="0.7" result="c3"></feFlood><feComposite operator="in" in="c1" in2="SourceAlpha" result="text-c1"></feComposite><feComposite operator="in" in="c3" in2="SourceAlpha" result="text-c3"></feComposite><feOffset in="text-c1" dx="5" dy="-1" result="text1"></feOffset><feOffset in="text-c3" dx="-5" dy="1" result="text3"></feOffset><feBlend in="SourceGraphic" in2="text1" mode="multiply" result="text4"></feBlend><feBlend in="text4" in2="text3" mode="multiply"></feBlend></filter></defs><g filter="url(#editing-vr)"><g transform="translate(-193.8699827194214, 117.45000076293945)"><path d="M7.95-61.79L27.29-61.79L27.29-61.79Q31.54-61.79 35.23-60.87L35.23-60.87L35.23-60.87Q38.93-59.94 41.66-57.86L41.66-57.86L41.66-57.86Q44.39-55.77 45.96-52.42L45.96-52.42L45.96-52.42Q47.52-49.07 47.52-44.26L47.52-44.26L47.52-44.26Q47.52-38.89 45.72-35.49L45.72-35.49L45.72-35.49Q43.91-32.10 40.84-30.12L40.84-30.12L40.84-30.12Q37.77-28.14 33.71-27.41L33.71-27.41L33.71-27.41Q29.65-26.68 25.14-26.68L25.14-26.68L25.14-26.68Q22.69-26.68 20.35-26.86L20.35-26.86L20.35-26.86Q18.00-27.03 15.94-27.24L15.94-27.24L15.94 0L7.95 0L7.95-61.79ZM15.94-55.34L15.94-33.69L15.94-33.69Q18.00-33.43 20.26-33.28L20.26-33.28L20.26-33.28Q22.52-33.13 24.79-33.13L24.79-33.13L24.79-33.13Q28.06-33.13 30.79-33.54L30.79-33.54L30.79-33.54Q33.52-33.95 35.45-35.15L35.45-35.15L35.45-35.15Q37.38-36.35 38.46-38.54L38.46-38.54L38.46-38.54Q39.53-40.73 39.53-44.26L39.53-44.26L39.53-44.26Q39.53-47.48 38.63-49.61L38.63-49.61L38.63-49.61Q37.73-51.73 36.12-53.02L36.12-53.02L36.12-53.02Q34.50-54.31 32.25-54.83L32.25-54.83L32.25-54.83Q29.99-55.34 27.29-55.34L27.29-55.34L15.94-55.34ZM62.22-36.78L62.22-36.78L60.33-42.80L60.33-42.80Q67.55-45.68 75.45-45.68L75.45-45.68L75.45-45.68Q82.37-45.68 86.02-43.36L86.02-43.36L86.02-43.36Q90.19-40.69 90.19-34.29L90.19-34.29L90.19-16.71L90.19-16.71Q90.19-13.19 90.28-9.50L90.28-9.50L90.28-9.50Q90.32-7.30 90.71-4.94L90.71-4.94L90.71-4.94Q91.05-2.71 91.61-0.69L91.61-0.69L84.56 0.86L84.56 0.86Q83.57-2.02 83.32-5.59L83.32-5.59L82.46-5.67L82.46-5.67Q77.13 1.03 68.88 1.03L68.88 1.03L68.88 1.03Q62.86 1.03 59.21-2.30L59.21-2.30L59.21-2.30Q55.56-5.63 55.56-11.69L55.56-11.69L55.56-11.69Q55.56-16.20 57.56-19.08L57.56-19.08L57.56-19.08Q59.55-21.96 63.21-23.93L63.21-23.93L63.21-23.93Q68.96-27.07 79.32-27.07L79.32-27.07L79.32-27.07Q80.70-27.07 83.02-26.98L83.02-26.98L83.02-33.52L83.02-33.52Q83.02-36.61 81.13-37.98L81.13-37.98L81.13-37.98Q79.23-39.36 75.20-39.36L75.20-39.36L75.20-39.36Q69.31-39.36 62.22-36.78ZM83.02-12.55L83.02-12.55L83.02-21.57L83.02-21.57Q81.86-21.66 79.62-21.66L79.62-21.66L79.62-21.66Q75.84-21.66 72.66-21.01L72.66-21.01L72.66-21.01Q67.93-20.07 65.33-18.03L65.33-18.03L65.33-18.03Q62.73-15.98 62.73-12.16L62.73-12.16L62.73-12.16Q62.73-5.29 70.21-5.29L70.21-5.29L70.21-5.29Q74.08-5.29 77.43-7.35L77.43-7.35L77.43-7.35Q80.18-9.07 83.02-12.55ZM111.98-34.33L112.36-34.33L112.36-34.33Q113.70-37.00 115.22-39.14L115.22-39.14L115.22-39.14Q116.75-41.29 118.59-42.80L118.59-42.80L118.59-42.80Q120.27-44.26 122.29-44.97L122.29-44.97L122.29-44.97Q124.31-45.68 126.89-45.68L126.89-45.68L126.89-45.68Q127.75-45.68 128.88-45.59L128.88-45.59L128.88-45.59Q130.02-45.50 131.05-45.29L131.05-45.29L131.05-45.29Q130.88-43.14 130.65-41.25L130.65-41.25L130.65-41.25Q130.41-39.36 130.02-37.43L130.02-37.43L130.02-37.43Q127.88-37.81 126.09-37.98L126.09-37.98L126.09-37.98Q124.31-38.16 122.72-37.90L122.72-37.90L122.72-37.90Q120.83-37.55 119.43-36.63L119.43-36.63L119.43-36.63Q118.04-35.71 116.85-34.18L116.85-34.18L116.85-34.18Q115.67-32.66 114.55-30.53L114.55-30.53L114.55-30.53Q113.44-28.40 112.11-25.65L112.11-25.65L112.11 0L104.71 0L104.71-27.54L104.71-27.54Q104.71-30.25 104.65-32.31L104.65-32.31L104.65-32.31Q104.59-34.38 104.39-36.24L104.39-36.24L104.39-36.24Q104.20-38.11 103.81-39.94L103.81-39.94L103.81-39.94Q103.43-41.77 102.78-44L102.78-44L102.78-44Q104.59-44.47 106.33-44.86L106.33-44.86L106.33-44.86Q108.07-45.25 109.87-45.59L109.87-45.59L109.87-45.59Q110.47-43.87 110.84-42.54L110.84-42.54L110.84-42.54Q111.20-41.21 111.42-39.94L111.42-39.94L111.42-39.94Q111.63-38.67 111.74-37.36L111.74-37.36L111.74-37.36Q111.85-36.05 111.98-34.33L111.98-34.33ZM144.07-44.69L144.07-54.91L151.46-54.91L151.46-44.69L166.50-44.69L166.50-38.46L151.46-38.46L151.46-12.80L151.46-12.80Q151.46-10.23 151.62-8.87L151.62-8.87L151.62-8.87Q151.77-7.52 152.37-6.75L152.37-6.75L152.37-6.75Q153.48-5.20 156.88-5.20L156.88-5.20L156.88-5.20Q158.77-5.20 160.53-5.59L160.53-5.59L160.53-5.59Q162.34-5.97 163.84-6.45L163.84-6.45L163.84-6.45Q165.04-3.82 166.03-0.69L166.03-0.69L166.03-0.69Q160.96 1.03 155.80 1.03L155.80 1.03L155.80 1.03Q152.07 1.03 149.81 0.19L149.81 0.19L149.81 0.19Q147.55-0.64 146.27-2.54L146.27-2.54L146.27-2.54Q144.93-4.51 144.50-7.26L144.50-7.26L144.50-7.26Q144.07-10.01 144.07-14.87L144.07-14.87L144.07-38.46L137.63-38.46L137.63-44.69L144.07-44.69ZM205.91-44.69L213.30-44.69L213.30 0.99L213.30 0.99Q213.30 5.24 211.90 8.34L211.90 8.34L211.90 8.34Q210.50 11.43 208.03 13.45L208.03 13.45L208.03 13.45Q205.56 15.47 202.17 16.44L202.17 16.44L202.17 16.44Q198.77 17.40 194.78 17.40L194.78 17.40L194.78 17.40Q191.17 17.40 187.52 16.78L187.52 16.78L187.52 16.78Q183.86 16.16 180.55 15.04L180.55 15.04L180.55 15.04Q181.11 13.54 181.71 12.12L181.71 12.12L181.71 12.12Q182.32 10.70 182.92 9.28L182.92 9.28L182.92 9.28Q183.95 9.63 185.39 10.01L185.39 10.01L185.39 10.01Q186.83 10.40 188.44 10.72L188.44 10.72L188.44 10.72Q190.05 11.04 191.75 11.24L191.75 11.24L191.75 11.24Q193.45 11.43 195.04 11.43L195.04 11.43L195.04 11.43Q197.53 11.43 199.55 10.76L199.55 10.76L199.55 10.76Q201.57 10.10 202.98 8.77L202.98 8.77L202.98 8.77Q204.40 7.43 205.15 5.48L205.15 5.48L205.15 5.48Q205.91 3.52 205.91 0.99L205.91 0.99L205.91-8.72L205.09-8.72L205.09-8.72Q203.97-6.70 202.51-4.92L202.51-4.92L202.51-4.92Q201.05-3.14 199.29-1.80L199.29-1.80L199.29-1.80Q197.53-0.47 195.49 0.28L195.49 0.28L195.49 0.28Q193.45 1.03 191.17 1.03L191.17 1.03L191.17 1.03Q188.03 1.03 185.71 0.32L185.71 0.32L185.71 0.32Q183.39-0.39 181.74-1.78L181.74-1.78L181.74-1.78Q180.08-3.18 179.03-5.26L179.03-5.26L179.03-5.26Q177.98-7.35 177.42-10.10L177.42-10.10L177.42-10.10Q176.95-12.55 176.82-15.34L176.82-15.34L176.82-15.34Q176.69-18.13 176.69-21.10L176.69-21.10L176.69-44.69L184.08-44.69L184.08-19.04L184.08-19.04Q184.08-16.24 184.34-13.81L184.34-13.81L184.34-13.81Q184.59-11.39 185.47-9.60L185.47-9.60L185.47-9.60Q186.36-7.82 188.07-6.81L188.07-6.81L188.07-6.81Q189.79-5.80 192.76-5.80L192.76-5.80L192.76-5.80Q194.95-5.80 196.88-6.85L196.88-6.85L196.88-6.85Q198.82-7.91 200.45-9.54L200.45-9.54L200.45-9.54Q202.08-11.17 203.44-13.15L203.44-13.15L203.44-13.15Q204.79-15.13 205.91-17.02L205.91-17.02L205.91-44.69ZM255.66 5.63L255.66-67.50L262.32-67.50L262.32 5.63L255.66 5.63ZM328.71-9.84L346.89-61.79L355.35-61.79L332.28 0.09L325.10 0.09L301.98-61.79L310.45-61.79L328.71-9.84ZM371.77-62.00L371.77-62.00L371.77-62.00Q373.74-62.00 375.20-60.63L375.20-60.63L375.20-60.63Q376.62-59.13 376.62-57.11L376.62-57.11L376.62-57.11Q376.62-55.04 375.20-53.63L375.20-53.63L375.20-53.63Q373.74-52.16 371.77-52.16L371.77-52.16L371.77-52.16Q369.70-52.16 368.24-53.63L368.24-53.63L368.24-53.63Q366.78-55 366.78-57.11L366.78-57.11L366.78-57.11Q366.78-59.17 368.24-60.63L368.24-60.63L368.24-60.63Q369.70-62.00 371.77-62.00ZM367.98 0L367.98-44.69L375.38-44.69L375.38 0L367.98 0ZM398.41-34.33L398.79-34.33L398.79-34.33Q400.13-37.00 401.65-39.14L401.65-39.14L401.65-39.14Q403.18-41.29 405.02-42.80L405.02-42.80L405.02-42.80Q406.70-44.26 408.72-44.97L408.72-44.97L408.72-44.97Q410.74-45.68 413.32-45.68L413.32-45.68L413.32-45.68Q414.18-45.68 415.31-45.59L415.31-45.59L415.31-45.59Q416.45-45.50 417.48-45.29L417.48-45.29L417.48-45.29Q417.31-43.14 417.08-41.25L417.08-41.25L417.08-41.25Q416.84-39.36 416.45-37.43L416.45-37.43L416.45-37.43Q414.30-37.81 412.52-37.98L412.52-37.98L412.52-37.98Q410.74-38.16 409.15-37.90L409.15-37.90L409.15-37.90Q407.26-37.55 405.86-36.63L405.86-36.63L405.86-36.63Q404.46-35.71 403.28-34.18L403.28-34.18L403.28-34.18Q402.10-32.66 400.98-30.53L400.98-30.53L400.98-30.53Q399.87-28.40 398.54-25.65L398.54-25.65L398.54 0L391.14 0L391.14-27.54L391.14-27.54Q391.14-30.25 391.08-32.31L391.08-32.31L391.08-32.31Q391.02-34.38 390.82-36.24L390.82-36.24L390.82-36.24Q390.63-38.11 390.24-39.94L390.24-39.94L390.24-39.94Q389.86-41.77 389.21-44L389.21-44L389.21-44Q391.02-44.47 392.76-44.86L392.76-44.86L392.76-44.86Q394.50-45.25 396.30-45.59L396.30-45.59L396.30-45.59Q396.90-43.87 397.27-42.54L397.27-42.54L397.27-42.54Q397.63-41.21 397.85-39.94L397.85-39.94L397.85-39.94Q398.06-38.67 398.17-37.36L398.17-37.36L398.17-37.36Q398.28-36.05 398.41-34.33L398.41-34.33ZM430.50-44.69L430.50-54.91L437.89-54.91L437.89-44.69L452.93-44.69L452.93-38.46L437.89-38.46L437.89-12.80L437.89-12.80Q437.89-10.23 438.04-8.87L438.04-8.87L438.04-8.87Q438.20-7.52 438.80-6.75L438.80-6.75L438.80-6.75Q439.91-5.20 443.31-5.20L443.31-5.20L443.31-5.20Q445.20-5.20 446.96-5.59L446.96-5.59L446.96-5.59Q448.77-5.97 450.27-6.45L450.27-6.45L450.27-6.45Q451.47-3.82 452.46-0.69L452.46-0.69L452.46-0.69Q447.39 1.03 442.23 1.03L442.23 1.03L442.23 1.03Q438.50 1.03 436.24 0.19L436.24 0.19L436.24 0.19Q433.98-0.64 432.70-2.54L432.70-2.54L432.70-2.54Q431.36-4.51 430.93-7.26L430.93-7.26L430.93-7.26Q430.50-10.01 430.50-14.87L430.50-14.87L430.50-38.46L424.06-38.46L424.06-44.69L430.50-44.69ZM500.50-0.77L500.50-0.77L493.37 0.82L493.37 0.82Q492.55-1.76 492.21-4.17L492.21-4.17L492.21-4.17Q492.04-5.29 491.78-8.72L491.78-8.72L490.88-8.72L490.88-8.72Q488.51-4.38 485.03-1.80L485.03-1.80L485.03-1.80Q481.21 1.03 476.95 1.03L476.95 1.03L476.95 1.03Q470.55 1.03 467.20-2.06L467.20-2.06L467.20-2.06Q464.32-4.68 463.20-10.10L463.20-10.10L463.20-10.10Q462.47-13.79 462.47-21.10L462.47-21.10L462.47-44.69L469.86-44.69L469.86-19.04L469.86-19.04Q469.86-12.63 471.11-9.88L471.11-9.88L471.11-9.88Q472.96-5.80 478.54-5.80L478.54-5.80L478.54-5.80Q482.50-5.80 486.28-9.58L486.28-9.58L486.28-9.58Q488.81-12.12 491.69-17.02L491.69-17.02L491.69-44.69L499.08-44.69L499.08-17.10L499.08-17.10Q499.08-11.39 499.38-7.18L499.38-7.18L499.38-7.18Q499.55-4.55 500.50-0.77ZM515.93-36.78L515.93-36.78L514.04-42.80L514.04-42.80Q521.25-45.68 529.16-45.68L529.16-45.68L529.16-45.68Q536.08-45.68 539.73-43.36L539.73-43.36L539.73-43.36Q543.90-40.69 543.90-34.29L543.90-34.29L543.90-16.71L543.90-16.71Q543.90-13.19 543.98-9.50L543.98-9.50L543.98-9.50Q544.03-7.30 544.41-4.94L544.41-4.94L544.41-4.94Q544.76-2.71 545.32-0.69L545.32-0.69L538.27 0.86L538.27 0.86Q537.28-2.02 537.02-5.59L537.02-5.59L536.16-5.67L536.16-5.67Q530.84 1.03 522.59 1.03L522.59 1.03L522.59 1.03Q516.57 1.03 512.92-2.30L512.92-2.30L512.92-2.30Q509.27-5.63 509.27-11.69L509.27-11.69L509.27-11.69Q509.27-16.20 511.26-19.08L511.26-19.08L511.26-19.08Q513.26-21.96 516.91-23.93L516.91-23.93L516.91-23.93Q522.67-27.07 533.03-27.07L533.03-27.07L533.03-27.07Q534.40-27.07 536.72-26.98L536.72-26.98L536.72-33.52L536.72-33.52Q536.72-36.61 534.83-37.98L534.83-37.98L534.83-37.98Q532.94-39.36 528.90-39.36L528.90-39.36L528.90-39.36Q523.02-39.36 515.93-36.78ZM536.72-12.55L536.72-12.55L536.72-21.57L536.72-21.57Q535.56-21.66 533.33-21.66L533.33-21.66L533.33-21.66Q529.55-21.66 526.37-21.01L526.37-21.01L526.37-21.01Q521.64-20.07 519.04-18.03L519.04-18.03L519.04-18.03Q516.44-15.98 516.44-12.16L516.44-12.16L516.44-12.16Q516.44-5.29 523.92-5.29L523.92-5.29L523.92-5.29Q527.79-5.29 531.14-7.35L531.14-7.35L531.14-7.35Q533.89-9.07 536.72-12.55ZM564.22-61.79L564.22-17.36L564.22-17.36Q564.22-13.84 564.31-11.45L564.31-11.45L564.31-11.45Q564.39-9.07 564.52-7.26L564.52-7.26L564.52-7.26Q564.65-5.46 564.93-4.00L564.93-4.00L564.93-4.00Q565.21-2.54 565.64-0.77L565.64-0.77L565.64-0.77Q563.84-0.30 562.03 0.11L562.03 0.11L562.03 0.11Q560.23 0.52 558.42 0.82L558.42 0.82L558.42 0.82Q557.56-1.98 557.20-4.30L557.20-4.30L557.20-4.30Q556.83-6.62 556.83-8.85L556.83-8.85L556.83-61.79L564.22-61.79ZM603.97 0L603.97-61.79L638.26-61.79L638.26-55.17L612.05-55.17L612.05-38.11L630.61-38.11L630.61-31.50L612.05-31.50L612.05 0L603.97 0ZM651.11-36.78L651.11-36.78L649.21-42.80L649.21-42.80Q656.43-45.68 664.34-45.68L664.34-45.68L664.34-45.68Q671.26-45.68 674.91-43.36L674.91-43.36L674.91-43.36Q679.08-40.69 679.08-34.29L679.08-34.29L679.08-16.71L679.08-16.71Q679.08-13.19 679.16-9.50L679.16-9.50L679.16-9.50Q679.21-7.30 679.59-4.94L679.59-4.94L679.59-4.94Q679.94-2.71 680.50-0.69L680.50-0.69L673.45 0.86L673.45 0.86Q672.46-2.02 672.20-5.59L672.20-5.59L671.34-5.67L671.34-5.67Q666.02 1.03 657.77 1.03L657.77 1.03L657.77 1.03Q651.75 1.03 648.10-2.30L648.10-2.30L648.10-2.30Q644.45-5.63 644.45-11.69L644.45-11.69L644.45-11.69Q644.45-16.20 646.44-19.08L646.44-19.08L646.44-19.08Q648.44-21.96 652.09-23.93L652.09-23.93L652.09-23.93Q657.85-27.07 668.21-27.07L668.21-27.07L668.21-27.07Q669.58-27.07 671.90-26.98L671.90-26.98L671.90-33.52L671.90-33.52Q671.90-36.61 670.01-37.98L670.01-37.98L670.01-37.98Q668.12-39.36 664.08-39.36L664.08-39.36L664.08-39.36Q658.20-39.36 651.11-36.78ZM671.90-12.55L671.90-12.55L671.90-21.57L671.90-21.57Q670.74-21.66 668.51-21.66L668.51-21.66L668.51-21.66Q664.73-21.66 661.55-21.01L661.55-21.01L661.55-21.01Q656.82-20.07 654.22-18.03L654.22-18.03L654.22-18.03Q651.62-15.98 651.62-12.16L651.62-12.16L651.62-12.16Q651.62-5.29 659.10-5.29L659.10-5.29L659.10-5.29Q662.96-5.29 666.32-7.35L666.32-7.35L666.32-7.35Q669.07-9.07 671.90-12.55ZM722.61-7.61L724.45-1.59L724.45-1.59Q721.10-0.43 717.30 0.30L717.30 0.30L717.30 0.30Q713.50 1.03 710.10 1.03L710.10 1.03L710.10 1.03Q704.95 1.03 701.16-0.47L701.16-0.47L701.16-0.47Q697.38-1.98 694.91-4.86L694.91-4.86L694.91-4.86Q692.44-7.73 691.24-11.92L691.24-11.92L691.24-11.92Q690.04-16.11 690.04-21.48L690.04-21.48L690.04-21.48Q690.04-27.33 691.52-31.84L691.52-31.84L691.52-31.84Q693-36.35 695.81-39.42L695.81-39.42L695.81-39.42Q698.63-42.50 702.69-44.09L702.69-44.09L702.69-44.09Q706.75-45.68 711.91-45.68L711.91-45.68L711.91-45.68Q714.53-45.68 717.23-45.14L717.23-45.14L717.23-45.14Q719.94-44.60 722.73-43.79L722.73-43.79L720.89-37.77L720.89-37.77Q718.65-38.50 716.74-38.93L716.74-38.93L716.74-38.93Q714.83-39.36 712.72-39.36L712.72-39.36L712.72-39.36Q705.42-39.36 701.46-35.13L701.46-35.13L701.46-35.13Q697.51-30.89 697.51-22.34L697.51-22.34L697.51-22.34Q697.51-18.35 698.09-15.19L698.09-15.19L698.09-15.19Q698.67-12.03 700.15-9.82L700.15-9.82L700.15-9.82Q701.64-7.61 704.19-6.45L704.19-6.45L704.19-6.45Q706.75-5.29 710.70-5.29L710.70-5.29L710.70-5.29Q713.28-5.29 716.27-5.95L716.27-5.95L716.27-5.95Q719.25-6.62 722.61-7.61L722.61-7.61ZM738.98-44.69L738.98-54.91L746.37-54.91L746.37-44.69L761.41-44.69L761.41-38.46L746.37-38.46L746.37-12.80L746.37-12.80Q746.37-10.23 746.52-8.87L746.52-8.87L746.52-8.87Q746.67-7.52 747.27-6.75L747.27-6.75L747.27-6.75Q748.39-5.20 751.78-5.20L751.78-5.20L751.78-5.20Q753.67-5.20 755.43-5.59L755.43-5.59L755.43-5.59Q757.24-5.97 758.74-6.45L758.74-6.45L758.74-6.45Q759.95-3.82 760.93-0.69L760.93-0.69L760.93-0.69Q755.86 1.03 750.71 1.03L750.71 1.03L750.71 1.03Q746.97 1.03 744.71 0.19L744.71 0.19L744.71 0.19Q742.46-0.64 741.17-2.54L741.17-2.54L741.17-2.54Q739.84-4.51 739.41-7.26L739.41-7.26L739.41-7.26Q738.98-10.01 738.98-14.87L738.98-14.87L738.98-38.46L732.53-38.46L732.53-44.69L738.98-44.69ZM776.36-62.00L776.36-62.00L776.36-62.00Q778.34-62.00 779.80-60.63L779.80-60.63L779.80-60.63Q781.21-59.13 781.21-57.11L781.21-57.11L781.21-57.11Q781.21-55.04 779.80-53.63L779.80-53.63L779.80-53.63Q778.34-52.16 776.36-52.16L776.36-52.16L776.36-52.16Q774.30-52.16 772.84-53.63L772.84-53.63L772.84-53.63Q771.38-55 771.38-57.11L771.38-57.11L771.38-57.11Q771.38-59.17 772.84-60.63L772.84-60.63L772.84-60.63Q774.30-62.00 776.36-62.00ZM772.58 0L772.58-44.69L779.97-44.69L779.97 0L772.58 0ZM811.98-45.68L811.98-45.68L811.98-45.68Q814.09-45.68 816.36-45.35L816.36-45.35L816.36-45.35Q818.64-45.03 820.83-44.13L820.83-44.13L820.83-44.13Q823.02-43.18 824.98-41.57L824.98-41.57L824.98-41.57Q826.93-39.96 828.44-37.38L828.44-37.38L828.44-37.38Q829.94-34.76 830.80-31.09L830.80-31.09L830.80-31.09Q831.66-27.41 831.66-22.34L831.66-22.34L831.66-22.34Q831.66-17.27 830.80-13.60L830.80-13.60L830.80-13.60Q829.94-9.93 828.44-7.35L828.44-7.35L828.44-7.35Q826.93-4.73 824.98-3.09L824.98-3.09L824.98-3.09Q823.02-1.46 820.83-0.56L820.83-0.56L820.83-0.56Q818.64 0.39 816.36 0.71L816.36 0.71L816.36 0.71Q814.09 1.03 811.98 1.03L811.98 1.03L811.98 1.03Q809.92 1.03 807.66 0.71L807.66 0.71L807.66 0.71Q805.41 0.39 803.21-0.56L803.21-0.56L803.21-0.56Q801.02-1.46 799.09-3.09L799.09-3.09L799.09-3.09Q797.16-4.73 795.65-7.35L795.65-7.35L795.65-7.35Q794.15-9.93 793.29-13.60L793.29-13.60L793.29-13.60Q792.43-17.27 792.43-22.34L792.43-22.34L792.43-22.34Q792.43-27.41 793.29-31.09L793.29-31.09L793.29-31.09Q794.15-34.76 795.65-37.38L795.65-37.38L795.65-37.38Q797.16-39.96 799.09-41.57L799.09-41.57L799.09-41.57Q801.02-43.18 803.21-44.13L803.21-44.13L803.21-44.13Q805.41-45.03 807.64-45.35L807.64-45.35L807.64-45.35Q809.88-45.68 811.98-45.68ZM811.98-39.62L811.98-39.62L811.98-39.62Q809.53-39.62 807.36-38.84L807.36-38.84L807.36-38.84Q805.19-38.07 803.56-36.14L803.56-36.14L803.56-36.14Q801.88-34.16 800.89-30.85L800.89-30.85L800.89-30.85Q799.91-27.54 799.91-22.34L799.91-22.34L799.91-22.34Q799.91-17.19 800.89-13.86L800.89-13.86L800.89-13.86Q801.88-10.53 803.56-8.59L803.56-8.59L803.56-8.59Q805.19-6.62 807.36-5.87L807.36-5.87L807.36-5.87Q809.53-5.11 811.98-5.11L811.98-5.11L811.98-5.11Q814.47-5.11 816.69-5.87L816.69-5.87L816.69-5.87Q818.90-6.62 820.57-8.59L820.57-8.59L820.57-8.59Q822.25-10.53 823.22-13.86L823.22-13.86L823.22-13.86Q824.18-17.19 824.18-22.34L824.18-22.34L824.18-22.34Q824.18-27.54 823.22-30.85L823.22-30.85L823.22-30.85Q822.25-34.16 820.57-36.14L820.57-36.14L820.57-36.14Q818.90-38.07 816.69-38.84L816.69-38.84L816.69-38.84Q814.47-39.62 811.98-39.62ZM841.76-43.91L841.76-43.91L848.89-45.50L848.89-45.50Q849.71-42.93 850.05-40.52L850.05-40.52L850.05-40.52Q850.22-39.36 850.48-35.92L850.48-35.92L851.38-35.92L851.38-35.92Q853.75-40.26 857.23-42.84L857.23-42.84L857.23-42.84Q861.05-45.68 865.30-45.68L865.30-45.68L865.30-45.68Q871.71-45.68 875.06-42.58L875.06-42.58L875.06-42.58Q877.94-39.96 879.05-34.55L879.05-34.55L879.05-34.55Q879.79-30.85 879.79-23.55L879.79-23.55L879.79 0L872.39 0L872.39-25.61L872.39-25.61Q872.39-32.01 871.15-34.76L871.15-34.76L871.15-34.76Q869.30-38.84 863.71-38.84L863.71-38.84L863.71-38.84Q859.76-38.84 855.98-35.06L855.98-35.06L855.98-35.06Q853.45-32.53 850.57-27.63L850.57-27.63L850.57 0L843.18 0L843.18-27.50L843.18-27.50Q843.18-33.30 842.88-37.51L842.88-37.51L842.88-37.51Q842.70-40.13 841.76-43.91Z" fill="#444"></path></g></g><style>text {
  font-size: 64px;
  font-family: Arial Black;
  dominant-baseline: central;
  text-anchor: middle;
}</style></svg>