<svg width="819.807470703125px" height="183.2px" xmlns="http://www.w3.org/2000/svg" viewBox="-159.9037353515625 -16.599999999999994 819.807470703125 183.2" style="background: rgba(0, 0, 0, 0);" preserveAspectRatio="xMidYMid"><defs><filter id="editing-vr"><feFlood flood-color="#f00" flood-opacity="0.7" result="c1"></feFlood><feFlood flood-color="#00f" flood-opacity="0.7" result="c3"></feFlood><feComposite operator="in" in="c1" in2="SourceAlpha" result="text-c1"></feComposite><feComposite operator="in" in="c3" in2="SourceAlpha" result="text-c3"></feComposite><feOffset in="text-c1" dx="5" dy="-1" result="text1"></feOffset><feOffset in="text-c3" dx="-5" dy="1" result="text3"></feOffset><feBlend in="SourceGraphic" in2="text1" mode="multiply" result="text4"></feBlend><feBlend in="text4" in2="text3" mode="multiply"></feBlend></filter></defs><g filter="url(#editing-vr)"><g transform="translate(-43.75999402999878, 106.51499938964844)"><path d="M31.58-9.84L49.76-61.79L58.22-61.79L35.15 0.09L27.97 0.09L4.86-61.79L13.32-61.79L31.58-9.84ZM74.64-62.00L74.64-62.00L74.64-62.00Q76.61-62.00 78.07-60.63L78.07-60.63L78.07-60.63Q79.49-59.13 79.49-57.11L79.49-57.11L79.49-57.11Q79.49-55.04 78.07-53.63L78.07-53.63L78.07-53.63Q76.61-52.16 74.64-52.16L74.64-52.16L74.64-52.16Q72.57-52.16 71.11-53.63L71.11-53.63L71.11-53.63Q69.65-55 69.65-57.11L69.65-57.11L69.65-57.11Q69.65-59.17 71.11-60.63L71.11-60.63L71.11-60.63Q72.57-62.00 74.64-62.00ZM70.86 0L70.86-44.69L78.25-44.69L78.25 0L70.86 0ZM101.28-34.33L101.66-34.33L101.66-34.33Q103.00-37.00 104.52-39.14L104.52-39.14L104.52-39.14Q106.05-41.29 107.89-42.80L107.89-42.80L107.89-42.80Q109.57-44.26 111.59-44.97L111.59-44.97L111.59-44.97Q113.61-45.68 116.19-45.68L116.19-45.68L116.19-45.68Q117.05-45.68 118.19-45.59L118.19-45.59L118.19-45.59Q119.32-45.50 120.36-45.29L120.36-45.29L120.36-45.29Q120.18-43.14 119.95-41.25L119.95-41.25L119.95-41.25Q119.71-39.36 119.32-37.43L119.32-37.43L119.32-37.43Q117.18-37.81 115.39-37.98L115.39-37.98L115.39-37.98Q113.61-38.16 112.02-37.90L112.02-37.90L112.02-37.90Q110.13-37.55 108.73-36.63L108.73-36.63L108.73-36.63Q107.34-35.71 106.15-34.18L106.15-34.18L106.15-34.18Q104.97-32.66 103.86-30.53L103.86-30.53L103.86-30.53Q102.74-28.40 101.41-25.65L101.41-25.65L101.41 0L94.02 0L94.02-27.54L94.02-27.54Q94.02-30.25 93.95-32.31L93.95-32.31L93.95-32.31Q93.89-34.38 93.69-36.24L93.69-36.24L93.69-36.24Q93.50-38.11 93.11-39.94L93.11-39.94L93.11-39.94Q92.73-41.77 92.08-44L92.08-44L92.08-44Q93.89-44.47 95.63-44.86L95.63-44.86L95.63-44.86Q97.37-45.25 99.17-45.59L99.17-45.59L99.17-45.59Q99.77-43.87 100.14-42.54L100.14-42.54L100.14-42.54Q100.50-41.21 100.72-39.94L100.72-39.94L100.72-39.94Q100.93-38.67 101.04-37.36L101.04-37.36L101.04-37.36Q101.15-36.05 101.28-34.33L101.28-34.33ZM133.38-44.69L133.38-54.91L140.77-54.91L140.77-44.69L155.80-44.69L155.80-38.46L140.77-38.46L140.77-12.80L140.77-12.80Q140.77-10.23 140.92-8.87L140.92-8.87L140.92-8.87Q141.07-7.52 141.67-6.75L141.67-6.75L141.67-6.75Q142.79-5.20 146.18-5.20L146.18-5.20L146.18-5.20Q148.07-5.20 149.83-5.59L149.83-5.59L149.83-5.59Q151.64-5.97 153.14-6.45L153.14-6.45L153.14-6.45Q154.34-3.82 155.33-0.69L155.33-0.69L155.33-0.69Q150.26 1.03 145.11 1.03L145.11 1.03L145.11 1.03Q141.37 1.03 139.11 0.19L139.11 0.19L139.11 0.19Q136.86-0.64 135.57-2.54L135.57-2.54L135.57-2.54Q134.23-4.51 133.80-7.26L133.80-7.26L133.80-7.26Q133.38-10.01 133.38-14.87L133.38-14.87L133.38-38.46L126.93-38.46L126.93-44.69L133.38-44.69ZM203.37-0.77L203.37-0.77L196.24 0.82L196.24 0.82Q195.42-1.76 195.08-4.17L195.08-4.17L195.08-4.17Q194.91-5.29 194.65-8.72L194.65-8.72L193.75-8.72L193.75-8.72Q191.38-4.38 187.90-1.80L187.90-1.80L187.90-1.80Q184.08 1.03 179.82 1.03L179.82 1.03L179.82 1.03Q173.42 1.03 170.07-2.06L170.07-2.06L170.07-2.06Q167.19-4.68 166.07-10.10L166.07-10.10L166.07-10.10Q165.34-13.79 165.34-21.10L165.34-21.10L165.34-44.69L172.73-44.69L172.73-19.04L172.73-19.04Q172.73-12.63 173.98-9.88L173.98-9.88L173.98-9.88Q175.83-5.80 181.41-5.80L181.41-5.80L181.41-5.80Q185.37-5.80 189.15-9.58L189.15-9.58L189.15-9.58Q191.68-12.12 194.56-17.02L194.56-17.02L194.56-44.69L201.95-44.69L201.95-17.10L201.95-17.10Q201.95-11.39 202.25-7.18L202.25-7.18L202.25-7.18Q202.43-4.55 203.37-0.77ZM218.80-36.78L218.80-36.78L216.91-42.80L216.91-42.80Q224.13-45.68 232.03-45.68L232.03-45.68L232.03-45.68Q238.95-45.68 242.60-43.36L242.60-43.36L242.60-43.36Q246.77-40.69 246.77-34.29L246.77-34.29L246.77-16.71L246.77-16.71Q246.77-13.19 246.86-9.50L246.86-9.50L246.86-9.50Q246.90-7.30 247.29-4.94L247.29-4.94L247.29-4.94Q247.63-2.71 248.19-0.69L248.19-0.69L241.14 0.86L241.14 0.86Q240.15-2.02 239.89-5.59L239.89-5.59L239.04-5.67L239.04-5.67Q233.71 1.03 225.46 1.03L225.46 1.03L225.46 1.03Q219.44 1.03 215.79-2.30L215.79-2.30L215.79-2.30Q212.14-5.63 212.14-11.69L212.14-11.69L212.14-11.69Q212.14-16.20 214.13-19.08L214.13-19.08L214.13-19.08Q216.13-21.96 219.79-23.93L219.79-23.93L219.79-23.93Q225.54-27.07 235.90-27.07L235.90-27.07L235.90-27.07Q237.27-27.07 239.59-26.98L239.59-26.98L239.59-33.52L239.59-33.52Q239.59-36.61 237.70-37.98L237.70-37.98L237.70-37.98Q235.81-39.36 231.77-39.36L231.77-39.36L231.77-39.36Q225.89-39.36 218.80-36.78ZM239.59-12.55L239.59-12.55L239.59-21.57L239.59-21.57Q238.43-21.66 236.20-21.66L236.20-21.66L236.20-21.66Q232.42-21.66 229.24-21.01L229.24-21.01L229.24-21.01Q224.51-20.07 221.91-18.03L221.91-18.03L221.91-18.03Q219.31-15.98 219.31-12.16L219.31-12.16L219.31-12.16Q219.31-5.29 226.79-5.29L226.79-5.29L226.79-5.29Q230.66-5.29 234.01-7.35L234.01-7.35L234.01-7.35Q236.76-9.07 239.59-12.55ZM267.09-61.79L267.09-17.36L267.09-17.36Q267.09-13.84 267.18-11.45L267.18-11.45L267.18-11.45Q267.27-9.07 267.39-7.26L267.39-7.26L267.39-7.26Q267.52-5.46 267.80-4.00L267.80-4.00L267.80-4.00Q268.08-2.54 268.51-0.77L268.51-0.77L268.51-0.77Q266.71-0.30 264.90 0.11L264.90 0.11L264.90 0.11Q263.10 0.52 261.29 0.82L261.29 0.82L261.29 0.82Q260.43-1.98 260.07-4.30L260.07-4.30L260.07-4.30Q259.70-6.62 259.70-8.85L259.70-8.85L259.70-61.79L267.09-61.79ZM306.84 0L306.84-61.79L341.13-61.79L341.13-55.17L314.92-55.17L314.92-38.11L333.48-38.11L333.48-31.50L314.92-31.50L314.92 0L306.84 0ZM353.98-36.78L353.98-36.78L352.09-42.80L352.09-42.80Q359.30-45.68 367.21-45.68L367.21-45.68L367.21-45.68Q374.13-45.68 377.78-43.36L377.78-43.36L377.78-43.36Q381.95-40.69 381.95-34.29L381.95-34.29L381.95-16.71L381.95-16.71Q381.95-13.19 382.04-9.50L382.04-9.50L382.04-9.50Q382.08-7.30 382.46-4.94L382.46-4.94L382.46-4.94Q382.81-2.71 383.37-0.69L383.37-0.69L376.32 0.86L376.32 0.86Q375.33-2.02 375.07-5.59L375.07-5.59L374.21-5.67L374.21-5.67Q368.89 1.03 360.64 1.03L360.64 1.03L360.64 1.03Q354.62 1.03 350.97-2.30L350.97-2.30L350.97-2.30Q347.32-5.63 347.32-11.69L347.32-11.69L347.32-11.69Q347.32-16.20 349.31-19.08L349.31-19.08L349.31-19.08Q351.31-21.96 354.96-23.93L354.96-23.93L354.96-23.93Q360.72-27.07 371.08-27.07L371.08-27.07L371.08-27.07Q372.45-27.07 374.77-26.98L374.77-26.98L374.77-33.52L374.77-33.52Q374.77-36.61 372.88-37.98L372.88-37.98L372.88-37.98Q370.99-39.36 366.95-39.36L366.95-39.36L366.95-39.36Q361.07-39.36 353.98-36.78ZM374.77-12.55L374.77-12.55L374.77-21.57L374.77-21.57Q373.61-21.66 371.38-21.66L371.38-21.66L371.38-21.66Q367.60-21.66 364.42-21.01L364.42-21.01L364.42-21.01Q359.69-20.07 357.09-18.03L357.09-18.03L357.09-18.03Q354.49-15.98 354.49-12.16L354.49-12.16L354.49-12.16Q354.49-5.29 361.97-5.29L361.97-5.29L361.97-5.29Q365.84-5.29 369.19-7.35L369.19-7.35L369.19-7.35Q371.94-9.07 374.77-12.55ZM425.48-7.61L427.32-1.59L427.32-1.59Q423.97-0.43 420.17 0.30L420.17 0.30L420.17 0.30Q416.37 1.03 412.97 1.03L412.97 1.03L412.97 1.03Q407.82 1.03 404.04-0.47L404.04-0.47L404.04-0.47Q400.25-1.98 397.78-4.86L397.78-4.86L397.78-4.86Q395.31-7.73 394.11-11.92L394.11-11.92L394.11-11.92Q392.91-16.11 392.91-21.48L392.91-21.48L392.91-21.48Q392.91-27.33 394.39-31.84L394.39-31.84L394.39-31.84Q395.87-36.35 398.69-39.42L398.69-39.42L398.69-39.42Q401.50-42.50 405.56-44.09L405.56-44.09L405.56-44.09Q409.62-45.68 414.78-45.68L414.78-45.68L414.78-45.68Q417.40-45.68 420.11-45.14L420.11-45.14L420.11-45.14Q422.81-44.60 425.61-43.79L425.61-43.79L423.76-37.77L423.76-37.77Q421.52-38.50 419.61-38.93L419.61-38.93L419.61-38.93Q417.70-39.36 415.59-39.36L415.59-39.36L415.59-39.36Q408.29-39.36 404.34-35.13L404.34-35.13L404.34-35.13Q400.38-30.89 400.38-22.34L400.38-22.34L400.38-22.34Q400.38-18.35 400.96-15.19L400.96-15.19L400.96-15.19Q401.54-12.03 403.03-9.82L403.03-9.82L403.03-9.82Q404.51-7.61 407.06-6.45L407.06-6.45L407.06-6.45Q409.62-5.29 413.57-5.29L413.57-5.29L413.57-5.29Q416.15-5.29 419.14-5.95L419.14-5.95L419.14-5.95Q422.13-6.62 425.48-7.61L425.48-7.61ZM441.85-44.69L441.85-54.91L449.24-54.91L449.24-44.69L464.28-44.69L464.28-38.46L449.24-38.46L449.24-12.80L449.24-12.80Q449.24-10.23 449.39-8.87L449.39-8.87L449.39-8.87Q449.54-7.52 450.14-6.75L450.14-6.75L450.14-6.75Q451.26-5.20 454.65-5.20L454.65-5.20L454.65-5.20Q456.54-5.20 458.30-5.59L458.30-5.59L458.30-5.59Q460.11-5.97 461.61-6.45L461.61-6.45L461.61-6.45Q462.82-3.82 463.80-0.69L463.80-0.69L463.80-0.69Q458.73 1.03 453.58 1.03L453.58 1.03L453.58 1.03Q449.84 1.03 447.58 0.19L447.58 0.19L447.58 0.19Q445.33-0.64 444.04-2.54L444.04-2.54L444.04-2.54Q442.71-4.51 442.28-7.26L442.28-7.26L442.28-7.26Q441.85-10.01 441.85-14.87L441.85-14.87L441.85-38.46L435.40-38.46L435.40-44.69L441.85-44.69ZM479.23-62.00L479.23-62.00L479.23-62.00Q481.21-62.00 482.67-60.63L482.67-60.63L482.67-60.63Q484.09-59.13 484.09-57.11L484.09-57.11L484.09-57.11Q484.09-55.04 482.67-53.63L482.67-53.63L482.67-53.63Q481.21-52.16 479.23-52.16L479.23-52.16L479.23-52.16Q477.17-52.16 475.71-53.63L475.71-53.63L475.71-53.63Q474.25-55 474.25-57.11L474.25-57.11L474.25-57.11Q474.25-59.17 475.71-60.63L475.71-60.63L475.71-60.63Q477.17-62.00 479.23-62.00ZM475.45 0L475.45-44.69L482.84-44.69L482.84 0L475.45 0ZM514.85-45.68L514.85-45.68L514.85-45.68Q516.96-45.68 519.23-45.35L519.23-45.35L519.23-45.35Q521.51-45.03 523.70-44.13L523.70-44.13L523.70-44.13Q525.89-43.18 527.85-41.57L527.85-41.57L527.85-41.57Q529.80-39.96 531.31-37.38L531.31-37.38L531.31-37.38Q532.81-34.76 533.67-31.09L533.67-31.09L533.67-31.09Q534.53-27.41 534.53-22.34L534.53-22.34L534.53-22.34Q534.53-17.27 533.67-13.60L533.67-13.60L533.67-13.60Q532.81-9.93 531.31-7.35L531.31-7.35L531.31-7.35Q529.80-4.73 527.85-3.09L527.85-3.09L527.85-3.09Q525.89-1.46 523.70-0.56L523.70-0.56L523.70-0.56Q521.51 0.39 519.23 0.71L519.23 0.71L519.23 0.71Q516.96 1.03 514.85 1.03L514.85 1.03L514.85 1.03Q512.79 1.03 510.53 0.71L510.53 0.71L510.53 0.71Q508.28 0.39 506.09-0.56L506.09-0.56L506.09-0.56Q503.89-1.46 501.96-3.09L501.96-3.09L501.96-3.09Q500.03-4.73 498.52-7.35L498.52-7.35L498.52-7.35Q497.02-9.93 496.16-13.60L496.16-13.60L496.16-13.60Q495.30-17.27 495.30-22.34L495.30-22.34L495.30-22.34Q495.30-27.41 496.16-31.09L496.16-31.09L496.16-31.09Q497.02-34.76 498.52-37.38L498.52-37.38L498.52-37.38Q500.03-39.96 501.96-41.57L501.96-41.57L501.96-41.57Q503.89-43.18 506.09-44.13L506.09-44.13L506.09-44.13Q508.28-45.03 510.51-45.35L510.51-45.35L510.51-45.35Q512.75-45.68 514.85-45.68ZM514.85-39.62L514.85-39.62L514.85-39.62Q512.40-39.62 510.23-38.84L510.23-38.84L510.23-38.84Q508.06-38.07 506.43-36.14L506.43-36.14L506.43-36.14Q504.75-34.16 503.77-30.85L503.77-30.85L503.77-30.85Q502.78-27.54 502.78-22.34L502.78-22.34L502.78-22.34Q502.78-17.19 503.77-13.86L503.77-13.86L503.77-13.86Q504.75-10.53 506.43-8.59L506.43-8.59L506.43-8.59Q508.06-6.62 510.23-5.87L510.23-5.87L510.23-5.87Q512.40-5.11 514.85-5.11L514.85-5.11L514.85-5.11Q517.34-5.11 519.56-5.87L519.56-5.87L519.56-5.87Q521.77-6.62 523.45-8.59L523.45-8.59L523.45-8.59Q525.12-10.53 526.09-13.86L526.09-13.86L526.09-13.86Q527.05-17.19 527.05-22.34L527.05-22.34L527.05-22.34Q527.05-27.54 526.09-30.85L526.09-30.85L526.09-30.85Q525.12-34.16 523.45-36.14L523.45-36.14L523.45-36.14Q521.77-38.07 519.56-38.84L519.56-38.84L519.56-38.84Q517.34-39.62 514.85-39.62ZM544.63-43.91L544.63-43.91L551.76-45.50L551.76-45.50Q552.58-42.93 552.92-40.52L552.92-40.52L552.92-40.52Q553.09-39.36 553.35-35.92L553.35-35.92L554.25-35.92L554.25-35.92Q556.62-40.26 560.10-42.84L560.10-42.84L560.10-42.84Q563.92-45.68 568.18-45.68L568.18-45.68L568.18-45.68Q574.58-45.68 577.93-42.58L577.93-42.58L577.93-42.58Q580.81-39.96 581.93-34.55L581.93-34.55L581.93-34.55Q582.66-30.85 582.66-23.55L582.66-23.55L582.66 0L575.27 0L575.27-25.61L575.27-25.61Q575.27-32.01 574.02-34.76L574.02-34.76L574.02-34.76Q572.17-38.84 566.59-38.84L566.59-38.84L566.59-38.84Q562.63-38.84 558.85-35.06L558.85-35.06L558.85-35.06Q556.32-32.53 553.44-27.63L553.44-27.63L553.44 0L546.05 0L546.05-27.50L546.05-27.50Q546.05-33.30 545.75-37.51L545.75-37.51L545.75-37.51Q545.57-40.13 544.63-43.91Z" fill="#444"></path></g></g><style>text {
  font-size: 64px;
  font-family: Arial Black;
  dominant-baseline: central;
  text-anchor: middle;
}</style></svg>