<svg width="730.85498046875px" height="138.830029296875px" xmlns="http://www.w3.org/2000/svg" viewBox="-115.427490234375 5.584985351562494 730.85498046875 138.830029296875" style="background: rgba(0, 0, 0, 0);" preserveAspectRatio="xMidYMid"><defs><filter id="editing-vr"><feFlood flood-color="#f00" flood-opacity="0.7" result="c1"></feFlood><feFlood flood-color="#00f" flood-opacity="0.7" result="c3"></feFlood><feComposite operator="in" in="c1" in2="SourceAlpha" result="text-c1"></feComposite><feComposite operator="in" in="c3" in2="SourceAlpha" result="text-c3"></feComposite><feOffset in="text-c1" dx="5" dy="-1" result="text1"></feOffset><feOffset in="text-c3" dx="-5" dy="1" result="text3"></feOffset><feBlend in="SourceGraphic" in2="text1" mode="multiply" result="text4"></feBlend><feBlend in="text4" in2="text3" mode="multiply"></feBlend></filter></defs><g filter="url(#editing-vr)"><g transform="translate(-11.87497067451477, 104.67500114440918)"><path d="M22.97-7.16L36.19-44.94L42.34-44.94L25.56 0.06L20.34 0.06L3.53-44.94L9.69-44.94L22.97-7.16ZM54.28-45.09L54.28-45.09L54.28-45.09Q55.72-45.09 56.78-44.09L56.78-44.09L56.78-44.09Q57.81-43 57.81-41.53L57.81-41.53L57.81-41.53Q57.81-40.03 56.78-39L56.78-39L56.78-39Q55.72-37.94 54.28-37.94L54.28-37.94L54.28-37.94Q52.78-37.94 51.72-39L51.72-39L51.72-39Q50.66-40 50.66-41.53L50.66-41.53L50.66-41.53Q50.66-43.03 51.72-44.09L51.72-44.09L51.72-44.09Q52.78-45.09 54.28-45.09ZM51.53 0L51.53-32.50L56.91-32.50L56.91 0L51.53 0ZM73.66-24.97L73.94-24.97L73.94-24.97Q74.91-26.91 76.02-28.47L76.02-28.47L76.02-28.47Q77.13-30.03 78.47-31.13L78.47-31.13L78.47-31.13Q79.69-32.19 81.16-32.70L81.16-32.70L81.16-32.70Q82.63-33.22 84.50-33.22L84.50-33.22L84.50-33.22Q85.13-33.22 85.95-33.16L85.95-33.16L85.95-33.16Q86.78-33.09 87.53-32.94L87.53-32.94L87.53-32.94Q87.41-31.38 87.23-30L87.23-30L87.23-30Q87.06-28.63 86.78-27.22L86.78-27.22L86.78-27.22Q85.22-27.50 83.92-27.63L83.92-27.63L83.92-27.63Q82.63-27.75 81.47-27.56L81.47-27.56L81.47-27.56Q80.09-27.31 79.08-26.64L79.08-26.64L79.08-26.64Q78.06-25.97 77.20-24.86L77.20-24.86L77.20-24.86Q76.34-23.75 75.53-22.20L75.53-22.20L75.53-22.20Q74.72-20.66 73.75-18.66L73.75-18.66L73.75 0L68.38 0L68.38-20.03L68.38-20.03Q68.38-22 68.33-23.50L68.33-23.50L68.33-23.50Q68.28-25 68.14-26.36L68.14-26.36L68.14-26.36Q68-27.72 67.72-29.05L67.72-29.05L67.72-29.05Q67.44-30.38 66.97-32L66.97-32L66.97-32Q68.28-32.34 69.55-32.63L69.55-32.63L69.55-32.63Q70.81-32.91 72.13-33.16L72.13-33.16L72.13-33.16Q72.56-31.91 72.83-30.94L72.83-30.94L72.83-30.94Q73.09-29.97 73.25-29.05L73.25-29.05L73.25-29.05Q73.41-28.13 73.48-27.17L73.48-27.17L73.48-27.17Q73.56-26.22 73.66-24.97L73.66-24.97ZM97-32.50L97-39.94L102.38-39.94L102.38-32.50L113.31-32.50L113.31-27.97L102.38-27.97L102.38-9.31L102.38-9.31Q102.38-7.44 102.48-6.45L102.48-6.45L102.48-6.45Q102.59-5.47 103.03-4.91L103.03-4.91L103.03-4.91Q103.84-3.78 106.31-3.78L106.31-3.78L106.31-3.78Q107.69-3.78 108.97-4.06L108.97-4.06L108.97-4.06Q110.28-4.34 111.38-4.69L111.38-4.69L111.38-4.69Q112.25-2.78 112.97-0.50L112.97-0.50L112.97-0.50Q109.28 0.75 105.53 0.75L105.53 0.75L105.53 0.75Q102.81 0.75 101.17 0.14L101.17 0.14L101.17 0.14Q99.53-0.47 98.59-1.84L98.59-1.84L98.59-1.84Q97.63-3.28 97.31-5.28L97.31-5.28L97.31-5.28Q97-7.28 97-10.81L97-10.81L97-27.97L92.31-27.97L92.31-32.50L97-32.50ZM147.91-0.56L147.91-0.56L142.72 0.59L142.72 0.59Q142.13-1.28 141.88-3.03L141.88-3.03L141.88-3.03Q141.75-3.84 141.56-6.34L141.56-6.34L140.91-6.34L140.91-6.34Q139.19-3.19 136.66-1.31L136.66-1.31L136.66-1.31Q133.88 0.75 130.78 0.75L130.78 0.75L130.78 0.75Q126.13 0.75 123.69-1.50L123.69-1.50L123.69-1.50Q121.59-3.41 120.78-7.34L120.78-7.34L120.78-7.34Q120.25-10.03 120.25-15.34L120.25-15.34L120.25-32.50L125.63-32.50L125.63-13.84L125.63-13.84Q125.63-9.19 126.53-7.19L126.53-7.19L126.53-7.19Q127.88-4.22 131.94-4.22L131.94-4.22L131.94-4.22Q134.81-4.22 137.56-6.97L137.56-6.97L137.56-6.97Q139.41-8.81 141.50-12.38L141.50-12.38L141.50-32.50L146.88-32.50L146.88-12.44L146.88-12.44Q146.88-8.28 147.09-5.22L147.09-5.22L147.09-5.22Q147.22-3.31 147.91-0.56ZM159.13-26.75L159.13-26.75L157.75-31.13L157.75-31.13Q163-33.22 168.75-33.22L168.75-33.22L168.75-33.22Q173.78-33.22 176.44-31.53L176.44-31.53L176.44-31.53Q179.47-29.59 179.47-24.94L179.47-24.94L179.47-12.16L179.47-12.16Q179.47-9.59 179.53-6.91L179.53-6.91L179.53-6.91Q179.56-5.31 179.84-3.59L179.84-3.59L179.84-3.59Q180.09-1.97 180.50-0.50L180.50-0.50L175.38 0.63L175.38 0.63Q174.66-1.47 174.47-4.06L174.47-4.06L173.84-4.13L173.84-4.13Q169.97 0.75 163.97 0.75L163.97 0.75L163.97 0.75Q159.59 0.75 156.94-1.67L156.94-1.67L156.94-1.67Q154.28-4.09 154.28-8.50L154.28-8.50L154.28-8.50Q154.28-11.78 155.73-13.88L155.73-13.88L155.73-13.88Q157.19-15.97 159.84-17.41L159.84-17.41L159.84-17.41Q164.03-19.69 171.56-19.69L171.56-19.69L171.56-19.69Q172.56-19.69 174.25-19.63L174.25-19.63L174.25-24.38L174.25-24.38Q174.25-26.63 172.88-27.63L172.88-27.63L172.88-27.63Q171.50-28.63 168.56-28.63L168.56-28.63L168.56-28.63Q164.28-28.63 159.13-26.75ZM174.25-9.13L174.25-9.13L174.25-15.69L174.25-15.69Q173.41-15.75 171.78-15.75L171.78-15.75L171.78-15.75Q169.03-15.75 166.72-15.28L166.72-15.28L166.72-15.28Q163.28-14.59 161.39-13.11L161.39-13.11L161.39-13.11Q159.50-11.63 159.50-8.84L159.50-8.84L159.50-8.84Q159.50-3.84 164.94-3.84L164.94-3.84L164.94-3.84Q167.75-3.84 170.19-5.34L170.19-5.34L170.19-5.34Q172.19-6.59 174.25-9.13ZM194.25-44.94L194.25-12.63L194.25-12.63Q194.25-10.06 194.31-8.33L194.31-8.33L194.31-8.33Q194.38-6.59 194.47-5.28L194.47-5.28L194.47-5.28Q194.56-3.97 194.77-2.91L194.77-2.91L194.77-2.91Q194.97-1.84 195.28-0.56L195.28-0.56L195.28-0.56Q193.97-0.22 192.66 0.08L192.66 0.08L192.66 0.08Q191.34 0.38 190.03 0.59L190.03 0.59L190.03 0.59Q189.41-1.44 189.14-3.13L189.14-3.13L189.14-3.13Q188.88-4.81 188.88-6.44L188.88-6.44L188.88-44.94L194.25-44.94ZM259.69-44.94L259.69 0.31L252.81 0.31L228.91-37.25L228.91 0L223.03 0L223.03-44.94L229.91-44.94L253.81-7.38L253.81-44.94L259.69-44.94ZM273.66-45.09L273.66-45.09L273.66-45.09Q275.09-45.09 276.16-44.09L276.16-44.09L276.16-44.09Q277.19-43 277.19-41.53L277.19-41.53L277.19-41.53Q277.19-40.03 276.16-39L276.16-39L276.16-39Q275.09-37.94 273.66-37.94L273.66-37.94L273.66-37.94Q272.16-37.94 271.09-39L271.09-39L271.09-39Q270.03-40 270.03-41.53L270.03-41.53L270.03-41.53Q270.03-43.03 271.09-44.09L271.09-44.09L271.09-44.09Q272.16-45.09 273.66-45.09ZM270.91 0L270.91-32.50L276.28-32.50L276.28 0L270.91 0ZM303.16-32.50L306.03-32.50L306.03-32.50Q307.38-32.50 308.39-32.53L308.39-32.53L308.39-32.53Q309.41-32.56 310.34-32.67L310.34-32.67L310.34-32.67Q311.28-32.78 312.23-33L312.23-33L312.23-33Q313.19-33.22 314.47-33.63L314.47-33.63L314.47-33.63Q314.88-32.44 315.27-31.38L315.27-31.38L315.27-31.38Q315.66-30.31 316.06-29.19L316.06-29.19L316.06-29.19Q315.06-28.81 314.22-28.59L314.22-28.59L314.22-28.59Q313.38-28.38 312.55-28.23L312.55-28.23L312.55-28.23Q311.72-28.09 310.89-28.05L310.89-28.05L310.89-28.05Q310.06-28 309.13-27.97L309.13-27.97L309.13-27.97Q310-26.56 310.47-24.81L310.47-24.81L310.47-24.81Q310.94-23.06 310.94-21L310.94-21L310.94-21Q310.94-18 310.03-15.77L310.03-15.77L310.03-15.77Q309.13-13.53 307.44-11.97L307.44-11.97L307.44-11.97Q305.75-10.41 303.39-9.61L303.39-9.61L303.39-9.61Q301.03-8.81 298.09-8.81L298.09-8.81L298.09-8.81Q296.59-8.81 295.25-8.98L295.25-8.98L295.25-8.98Q293.91-9.16 292.69-9.59L292.69-9.59L292.69-9.59Q292.41-8.84 292.20-8.06L292.20-8.06L292.20-8.06Q292-7.28 292.02-6.58L292.02-6.58L292.02-6.58Q292.03-5.88 292.28-5.30L292.28-5.30L292.28-5.30Q292.53-4.72 293.16-4.38L293.16-4.38L293.16-4.38Q293.47-4.19 293.81-4.08L293.81-4.08L293.81-4.08Q294.16-3.97 294.64-3.89L294.64-3.89L294.64-3.89Q295.13-3.81 295.81-3.77L295.81-3.77L295.81-3.77Q296.50-3.72 297.47-3.72L297.47-3.72L297.47-3.72Q298.41-3.69 299.67-3.69L299.67-3.69L299.67-3.69Q300.94-3.69 302.63-3.69L302.63-3.69L302.63-3.69Q307.50-3.69 310-1.64L310-1.64L310-1.64Q312.50 0.41 312.50 4.72L312.50 4.72L312.50 4.72Q312.50 6.47 311.94 7.83L311.94 7.83L311.94 7.83Q311.38 9.19 310.39 10.19L310.39 10.19L310.39 10.19Q309.41 11.19 308.06 11.86L308.06 11.86L308.06 11.86Q306.72 12.53 305.16 12.95L305.16 12.95L305.16 12.95Q303.59 13.38 301.89 13.55L301.89 13.55L301.89 13.55Q300.19 13.72 298.47 13.72L298.47 13.72L298.47 13.72Q296.75 13.72 295.02 13.53L295.02 13.53L295.02 13.53Q293.28 13.34 291.63 13.06L291.63 13.06L291.63 13.06Q289.97 12.78 288.52 12.42L288.52 12.42L288.52 12.42Q287.06 12.06 285.94 11.72L285.94 11.72L285.94 11.72Q286.38 10.66 286.92 9.59L286.92 9.59L286.92 9.59Q287.47 8.53 288.09 7.59L288.09 7.59L288.09 7.59Q290.06 8.16 292.78 8.69L292.78 8.69L292.78 8.69Q295.50 9.22 298.81 9.22L298.81 9.22L298.81 9.22Q300.31 9.22 301.77 9.03L301.77 9.03L301.77 9.03Q303.22 8.84 304.39 8.33L304.39 8.33L304.39 8.33Q305.56 7.81 306.28 6.95L306.28 6.95L306.28 6.95Q307 6.09 307 4.72L307 4.72L307 4.72Q307 3.28 306.48 2.50L306.48 2.50L306.48 2.50Q305.97 1.72 305.09 1.34L305.09 1.34L305.09 1.34Q304.22 0.97 303.03 0.91L303.03 0.91L303.03 0.91Q301.84 0.84 300.53 0.84L300.53 0.84L296.44 0.84L296.44 0.84Q294.59 0.84 292.97 0.56L292.97 0.56L292.97 0.56Q291.34 0.28 290.13-0.39L290.13-0.39L290.13-0.39Q288.91-1.06 288.20-2.16L288.20-2.16L288.20-2.16Q287.50-3.25 287.50-4.84L287.50-4.84L287.50-4.84Q287.50-6.38 288.06-8.02L288.06-8.02L288.06-8.02Q288.63-9.66 289.53-11.34L289.53-11.34L289.53-11.34Q287.47-12.84 286.36-15.31L286.36-15.31L286.36-15.31Q285.25-17.78 285.25-21L285.25-21L285.25-21Q285.25-23.94 286.17-26.20L286.17-26.20L286.17-26.20Q287.09-28.47 288.78-30.06L288.78-30.06L288.78-30.06Q290.47-31.66 292.81-32.44L292.81-32.44L292.81-32.44Q295.16-33.22 298.09-33.22L298.09-33.22L298.09-33.22Q300.84-33.22 303.16-32.50L303.16-32.50ZM298.09-28.91L298.09-28.91L298.09-28.91Q296.13-28.91 294.72-28.31L294.72-28.31L294.72-28.31Q293.31-27.72 292.42-26.67L292.42-26.67L292.42-26.67Q291.53-25.63 291.11-24.17L291.11-24.17L291.11-24.17Q290.69-22.72 290.69-21L290.69-21L290.69-21Q290.69-19.25 291.11-17.81L291.11-17.81L291.11-17.81Q291.53-16.38 292.44-15.33L292.44-15.33L292.44-15.33Q293.34-14.28 294.73-13.70L294.73-13.70L294.73-13.70Q296.13-13.13 298.09-13.13L298.09-13.13L298.09-13.13Q300.06-13.13 301.47-13.70L301.47-13.70L301.47-13.70Q302.88-14.28 303.77-15.33L303.77-15.33L303.77-15.33Q304.66-16.38 305.08-17.83L305.08-17.83L305.08-17.83Q305.50-19.28 305.50-21L305.50-21L305.50-21Q305.50-22.72 305.08-24.17L305.08-24.17L305.08-24.17Q304.66-25.63 303.77-26.67L303.77-26.67L303.77-26.67Q302.88-27.72 301.47-28.31L301.47-28.31L301.47-28.31Q300.06-28.91 298.09-28.91ZM322.63 0L322.63-45L328-45L328-25.41L328-25.41Q330.09-28.97 332.75-30.97L332.75-30.97L332.75-30.97Q335.78-33.22 338.78-33.22L338.78-33.22L338.78-33.22Q343.28-33.22 345.78-30.97L345.78-30.97L345.78-30.97Q347.94-29.03 348.75-25.13L348.75-25.13L348.75-25.13Q349.38-22.16 349.38-17.13L349.38-17.13L349.38 0L344 0L344-18.63L344-18.63Q344-20.53 343.91-21.77L343.91-21.77L343.91-21.77Q343.81-23 343.45-24.36L343.45-24.36L343.45-24.36Q343.09-25.72 342.42-26.48L342.42-26.48L342.42-26.48Q341.75-27.25 340.55-27.75L340.55-27.75L340.55-27.75Q339.34-28.25 337.63-28.25L337.63-28.25L337.63-28.25Q334.66-28.25 331.91-25.44L331.91-25.44L331.91-25.44Q330.16-23.66 328-20L328-20L328 0L322.63 0ZM361.50-32.50L361.50-39.94L366.88-39.94L366.88-32.50L377.81-32.50L377.81-27.97L366.88-27.97L366.88-9.31L366.88-9.31Q366.88-7.44 366.98-6.45L366.98-6.45L366.98-6.45Q367.09-5.47 367.53-4.91L367.53-4.91L367.53-4.91Q368.34-3.78 370.81-3.78L370.81-3.78L370.81-3.78Q372.19-3.78 373.47-4.06L373.47-4.06L373.47-4.06Q374.78-4.34 375.88-4.69L375.88-4.69L375.88-4.69Q376.75-2.78 377.47-0.50L377.47-0.50L377.47-0.50Q373.78 0.75 370.03 0.75L370.03 0.75L370.03 0.75Q367.31 0.75 365.67 0.14L365.67 0.14L365.67 0.14Q364.03-0.47 363.09-1.84L363.09-1.84L363.09-1.84Q362.13-3.28 361.81-5.28L361.81-5.28L361.81-5.28Q361.50-7.28 361.50-10.81L361.50-10.81L361.50-27.97L356.81-27.97L356.81-32.50L361.50-32.50ZM433.09-6.09L434.56-1.28L434.56-1.28Q431.66-0.38 428.42 0.19L428.42 0.19L428.42 0.19Q425.19 0.75 421.31 0.75L421.31 0.75L421.31 0.75Q411.75 0.75 406.88-4.97L406.88-4.97L406.88-4.97Q402-10.69 402-21.81L402-21.81L402-21.81Q402-33.63 406.88-39.63L406.88-39.63L406.88-39.63Q411.75-45.63 421.31-45.63L421.31-45.63L421.31-45.63Q424.94-45.63 427.83-45L427.83-45L427.83-45Q430.72-44.38 433.41-43.38L433.41-43.38L431.78-38.75L431.78-38.75Q430.50-39.22 429.25-39.59L429.25-39.59L429.25-39.59Q428-39.97 426.73-40.22L426.73-40.22L426.73-40.22Q425.47-40.47 424.13-40.59L424.13-40.59L424.13-40.59Q422.78-40.72 421.31-40.72L421.31-40.72L421.31-40.72Q417.84-40.72 415.34-39.48L415.34-39.48L415.34-39.48Q412.84-38.25 411.22-35.89L411.22-35.89L411.22-35.89Q409.59-33.53 408.81-30.14L408.81-30.14L408.81-30.14Q408.03-26.75 408.03-22.44L408.03-22.44L408.03-22.44Q408.03-18 408.81-14.59L408.81-14.59L408.81-14.59Q409.59-11.19 411.22-8.86L411.22-8.86L411.22-8.86Q412.84-6.53 415.34-5.34L415.34-5.34L415.34-5.34Q417.84-4.16 421.31-4.16L421.31-4.16L421.31-4.16Q424.50-4.16 427.38-4.69L427.38-4.69L427.38-4.69Q430.25-5.22 433.09-6.09L433.09-6.09ZM446.88-44.94L446.88-12.63L446.88-12.63Q446.88-10.06 446.94-8.33L446.94-8.33L446.94-8.33Q447-6.59 447.09-5.28L447.09-5.28L447.09-5.28Q447.19-3.97 447.39-2.91L447.39-2.91L447.39-2.91Q447.59-1.84 447.91-0.56L447.91-0.56L447.91-0.56Q446.59-0.22 445.28 0.08L445.28 0.08L445.28 0.08Q443.97 0.38 442.66 0.59L442.66 0.59L442.66 0.59Q442.03-1.44 441.77-3.13L441.77-3.13L441.77-3.13Q441.50-4.81 441.50-6.44L441.50-6.44L441.50-44.94L446.88-44.94ZM484.09-0.56L484.09-0.56L478.91 0.59L478.91 0.59Q478.31-1.28 478.06-3.03L478.06-3.03L478.06-3.03Q477.94-3.84 477.75-6.34L477.75-6.34L477.09-6.34L477.09-6.34Q475.38-3.19 472.84-1.31L472.84-1.31L472.84-1.31Q470.06 0.75 466.97 0.75L466.97 0.75L466.97 0.75Q462.31 0.75 459.88-1.50L459.88-1.50L459.88-1.50Q457.78-3.41 456.97-7.34L456.97-7.34L456.97-7.34Q456.44-10.03 456.44-15.34L456.44-15.34L456.44-32.50L461.81-32.50L461.81-13.84L461.81-13.84Q461.81-9.19 462.72-7.19L462.72-7.19L462.72-7.19Q464.06-4.22 468.13-4.22L468.13-4.22L468.13-4.22Q471-4.22 473.75-6.97L473.75-6.97L473.75-6.97Q475.59-8.81 477.69-12.38L477.69-12.38L477.69-32.50L483.06-32.50L483.06-12.44L483.06-12.44Q483.06-8.28 483.28-5.22L483.28-5.22L483.28-5.22Q483.41-3.31 484.09-0.56ZM493.66-0.25L493.66-45L499.03-45L499.03-26.28L499.69-26.22L499.69-26.22Q501.16-29.47 503.16-31.16L503.16-31.16L503.16-31.16Q505.47-33.22 508.75-33.22L508.75-33.22L508.75-33.22Q514.47-33.22 517.50-28.41L517.50-28.41L517.50-28.41Q520.22-23.94 520.22-16.88L520.22-16.88L520.22-16.88Q520.22-8.28 516.13-3.63L516.13-3.63L516.13-3.63Q512.22 0.75 504.56 0.75L504.56 0.75L504.56 0.75Q500.38 0.75 493.66-0.25L493.66-0.25ZM498.72-19.19L498.72-19.19L498.72-4.44L498.72-4.44Q501.59-3.84 504.56-3.84L504.56-3.84L504.56-3.84Q509.63-3.84 512.16-6.81L512.16-6.81L512.16-6.81Q514.78-9.88 514.78-15.91L514.78-15.91L514.78-15.91Q514.78-21.38 513.59-24.34L513.59-24.34L513.59-24.34Q512.03-28.25 508.28-28.25L508.28-28.25L508.28-28.25Q505-28.25 502.50-25.50L502.50-25.50L502.50-25.50Q500.75-23.63 498.72-19.19Z" fill="#444"></path></g></g><style>text {
  font-size: 64px;
  font-family: Arial Black;
  dominant-baseline: central;
  text-anchor: middle;
}</style></svg>