<svg width="986.3225585937499px" height="182.00996093749998px" xmlns="http://www.w3.org/2000/svg" viewBox="-243.16127929687497 -16.00498046874999 986.3225585937499 182.00996093749998" style="background: rgba(0, 0, 0, 0);" preserveAspectRatio="xMidYMid"><defs><filter id="editing-vr"><feFlood flood-color="#f00" flood-opacity="0.7" result="c1"></feFlood><feFlood flood-color="#8c8cd2" flood-opacity="0.7" result="c3"></feFlood><feComposite operator="in" in="c1" in2="SourceAlpha" result="text-c1"></feComposite><feComposite operator="in" in="c3" in2="SourceAlpha" result="text-c3"></feComposite><feOffset in="text-c1" dx="5" dy="-1" result="text1"></feOffset><feOffset in="text-c3" dx="-5" dy="1" result="text3"></feOffset><feBlend in="SourceGraphic" in2="text1" mode="multiply" result="text4"></feBlend><feBlend in="text4" in2="text3" mode="multiply"></feBlend></filter></defs><g filter="url(#editing-vr)"><g transform="translate(-105.98499774932861, 115.33499908447266)"><path d="M31.22-9.73L49.19-61.09L57.56-61.09L34.75 0.08L27.65 0.08L4.80-61.09L13.17-61.09L31.22-9.73ZM73.79-61.30L73.79-61.30L73.79-61.30Q75.74-61.30 77.19-59.94L77.19-59.94L77.19-59.94Q78.59-58.45 78.59-56.46L78.59-56.46L78.59-56.46Q78.59-54.42 77.19-53.02L77.19-53.02L77.19-53.02Q75.74-51.57 73.79-51.57L73.79-51.57L73.79-51.57Q71.75-51.57 70.31-53.02L70.31-53.02L70.31-53.02Q68.86-54.38 68.86-56.46L68.86-56.46L68.86-56.46Q68.86-58.50 70.31-59.94L70.31-59.94L70.31-59.94Q71.75-61.30 73.79-61.30ZM70.05 0L70.05-44.18L77.36-44.18L77.36 0L70.05 0ZM100.13-33.94L100.51-33.94L100.51-33.94Q101.83-36.58 103.33-38.70L103.33-38.70L103.33-38.70Q104.84-40.82 106.67-42.31L106.67-42.31L106.67-42.31Q108.33-43.75 110.32-44.46L110.32-44.46L110.32-44.46Q112.32-45.16 114.87-45.16L114.87-45.16L114.87-45.16Q115.72-45.16 116.84-45.07L116.84-45.07L116.84-45.07Q117.97-44.99 118.99-44.77L118.99-44.77L118.99-44.77Q118.82-42.65 118.58-40.78L118.58-40.78L118.58-40.78Q118.35-38.91 117.97-37.00L117.97-37.00L117.97-37.00Q115.84-37.38 114.08-37.55L114.08-37.55L114.08-37.55Q112.32-37.72 110.75-37.47L110.75-37.47L110.75-37.47Q108.88-37.13 107.50-36.21L107.50-36.21L107.50-36.21Q106.12-35.30 104.95-33.79L104.95-33.79L104.95-33.79Q103.78-32.29 102.68-30.18L102.68-30.18L102.68-30.18Q101.57-28.08 100.25-25.36L100.25-25.36L100.25 0L92.95 0L92.95-27.23L92.95-27.23Q92.95-29.91 92.88-31.95L92.88-31.95L92.88-31.95Q92.82-33.98 92.63-35.83L92.63-35.83L92.63-35.83Q92.44-37.68 92.06-39.49L92.06-39.49L92.06-39.49Q91.67-41.29 91.04-43.50L91.04-43.50L91.04-43.50Q92.82-43.97 94.54-44.35L94.54-44.35L94.54-44.35Q96.26-44.73 98.04-45.07L98.04-45.07L98.04-45.07Q98.64-43.37 99.00-42.06L99.00-42.06L99.00-42.06Q99.36-40.74 99.57-39.49L99.57-39.49L99.57-39.49Q99.79-38.23 99.89-36.94L99.89-36.94L99.89-36.94Q100.00-35.64 100.13-33.94L100.13-33.94ZM131.86-44.18L131.86-54.29L139.17-54.29L139.17-44.18L154.03-44.18L154.03-38.02L139.17-38.02L139.17-12.66L139.17-12.66Q139.17-10.11 139.31-8.77L139.31-8.77L139.31-8.77Q139.46-7.43 140.06-6.67L140.06-6.67L140.06-6.67Q141.16-5.14 144.52-5.14L144.52-5.14L144.52-5.14Q146.39-5.14 148.13-5.52L148.13-5.52L148.13-5.52Q149.91-5.90 151.40-6.37L151.40-6.37L151.40-6.37Q152.59-3.78 153.57-0.68L153.57-0.68L153.57-0.68Q148.55 1.02 143.46 1.02L143.46 1.02L143.46 1.02Q139.76 1.02 137.53 0.19L137.53 0.19L137.53 0.19Q135.30-0.64 134.03-2.51L134.03-2.51L134.03-2.51Q132.71-4.46 132.28-7.18L132.28-7.18L132.28-7.18Q131.86-9.90 131.86-14.70L131.86-14.70L131.86-38.02L125.49-38.02L125.49-44.18L131.86-44.18ZM201.06-0.76L201.06-0.76L194.01 0.81L194.01 0.81Q193.20-1.74 192.86-4.12L192.86-4.12L192.86-4.12Q192.69-5.23 192.44-8.62L192.44-8.62L191.54-8.62L191.54-8.62Q189.21-4.33 185.77-1.78L185.77-1.78L185.77-1.78Q181.99 1.02 177.78 1.02L177.78 1.02L177.78 1.02Q171.45 1.02 168.14-2.04L168.14-2.04L168.14-2.04Q165.29-4.63 164.19-9.98L164.19-9.98L164.19-9.98Q163.46-13.64 163.46-20.86L163.46-20.86L163.46-44.18L170.77-44.18L170.77-18.82L170.77-18.82Q170.77-12.49 172.00-9.77L172.00-9.77L172.00-9.77Q173.83-5.73 179.35-5.73L179.35-5.73L179.35-5.73Q183.26-5.73 187.00-9.47L187.00-9.47L187.00-9.47Q189.51-11.98 192.35-16.82L192.35-16.82L192.35-44.18L199.66-44.18L199.66-16.91L199.66-16.91Q199.66-11.26 199.96-7.09L199.96-7.09L199.96-7.09Q200.13-4.50 201.06-0.76ZM216.31-36.36L216.31-36.36L214.44-42.31L214.44-42.31Q221.58-45.16 229.39-45.16L229.39-45.16L229.39-45.16Q236.23-45.16 239.84-42.86L239.84-42.86L239.84-42.86Q243.97-40.23 243.97-33.90L243.97-33.90L243.97-16.52L243.97-16.52Q243.97-13.04 244.05-9.39L244.05-9.39L244.05-9.39Q244.09-7.22 244.48-4.89L244.48-4.89L244.48-4.89Q244.81-2.68 245.37-0.68L245.37-0.68L238.40 0.85L238.40 0.85Q237.42-2.00 237.17-5.52L237.17-5.52L236.32-5.61L236.32-5.61Q231.05 1.02 222.90 1.02L222.90 1.02L222.90 1.02Q216.95 1.02 213.34-2.27L213.34-2.27L213.34-2.27Q209.73-5.56 209.73-11.55L209.73-11.55L209.73-11.55Q209.73-16.02 211.70-18.86L211.70-18.86L211.70-18.86Q213.68-21.71 217.29-23.66L217.29-23.66L217.29-23.66Q222.98-26.76 233.22-26.76L233.22-26.76L233.22-26.76Q234.58-26.76 236.87-26.68L236.87-26.68L236.87-33.13L236.87-33.13Q236.87-36.19 235.00-37.55L235.00-37.55L235.00-37.55Q233.13-38.91 229.14-38.91L229.14-38.91L229.14-38.91Q223.32-38.91 216.31-36.36ZM236.87-12.40L236.87-12.40L236.87-21.33L236.87-21.33Q235.72-21.41 233.52-21.41L233.52-21.41L233.52-21.41Q229.78-21.41 226.63-20.77L226.63-20.77L226.63-20.77Q221.96-19.84 219.39-17.82L219.39-17.82L219.39-17.82Q216.82-15.80 216.82-12.02L216.82-12.02L216.82-12.02Q216.82-5.23 224.21-5.23L224.21-5.23L224.21-5.23Q228.04-5.23 231.35-7.26L231.35-7.26L231.35-7.26Q234.07-8.96 236.87-12.40ZM264.06-61.09L264.06-17.16L264.06-17.16Q264.06-13.68 264.14-11.32L264.14-11.32L264.14-11.32Q264.23-8.96 264.36-7.18L264.36-7.18L264.36-7.18Q264.48-5.40 264.76-3.95L264.76-3.95L264.76-3.95Q265.04-2.51 265.46-0.76L265.46-0.76L265.46-0.76Q263.68-0.30 261.89 0.11L261.89 0.11L261.89 0.11Q260.11 0.51 258.32 0.81L258.32 0.81L258.32 0.81Q257.47-1.95 257.11-4.25L257.11-4.25L257.11-4.25Q256.75-6.54 256.75-8.75L256.75-8.75L256.75-61.09L264.06-61.09ZM353.01-61.09L353.01 0.42L343.67 0.42L311.17-50.64L311.17 0L303.18 0L303.18-61.09L312.53-61.09L345.03-10.03L345.03-61.09L353.01-61.09ZM372.00-61.30L372.00-61.30L372.00-61.30Q373.96-61.30 375.40-59.94L375.40-59.94L375.40-59.94Q376.80-58.45 376.80-56.46L376.80-56.46L376.80-56.46Q376.80-54.42 375.40-53.02L375.40-53.02L375.40-53.02Q373.96-51.57 372.00-51.57L372.00-51.57L372.00-51.57Q369.96-51.57 368.52-53.02L368.52-53.02L368.52-53.02Q367.07-54.38 367.07-56.46L367.07-56.46L367.07-56.46Q367.07-58.50 368.52-59.94L368.52-59.94L368.52-59.94Q369.96-61.30 372.00-61.30ZM368.26 0L368.26-44.18L375.57-44.18L375.57 0L368.26 0ZM412.10-44.18L416.01-44.18L416.01-44.18Q417.84-44.18 419.22-44.22L419.22-44.22L419.22-44.22Q420.60-44.26 421.87-44.41L421.87-44.41L421.87-44.41Q423.15-44.56 424.44-44.86L424.44-44.86L424.44-44.86Q425.74-45.16 427.48-45.71L427.48-45.71L427.48-45.71Q428.03-44.09 428.56-42.65L428.56-42.65L428.56-42.65Q429.10-41.21 429.65-39.68L429.65-39.68L429.65-39.68Q428.29-39.17 427.14-38.87L427.14-38.87L427.14-38.87Q425.99-38.57 424.87-38.38L424.87-38.38L424.87-38.38Q423.74-38.19 422.62-38.13L422.62-38.13L422.62-38.13Q421.49-38.06 420.22-38.02L420.22-38.02L420.22-38.02Q421.41-36.11 422.04-33.73L422.04-33.73L422.04-33.73Q422.68-31.35 422.68-28.55L422.68-28.55L422.68-28.55Q422.68-24.47 421.45-21.43L421.45-21.43L421.45-21.43Q420.22-18.39 417.92-16.27L417.92-16.27L417.92-16.27Q415.63-14.15 412.42-13.06L412.42-13.06L412.42-13.06Q409.21-11.98 405.22-11.98L405.22-11.98L405.22-11.98Q403.18-11.98 401.36-12.21L401.36-12.21L401.36-12.21Q399.53-12.45 397.87-13.04L397.87-13.04L397.87-13.04Q397.49-12.02 397.21-10.96L397.21-10.96L397.21-10.96Q396.94-9.90 396.96-8.94L396.96-8.94L396.96-8.94Q396.98-7.99 397.32-7.20L397.32-7.20L397.32-7.20Q397.66-6.41 398.51-5.95L398.51-5.95L398.51-5.95Q398.93-5.69 399.40-5.54L399.40-5.54L399.40-5.54Q399.87-5.40 400.53-5.29L400.53-5.29L400.53-5.29Q401.19-5.18 402.12-5.12L402.12-5.12L402.12-5.12Q403.05-5.06 404.37-5.06L404.37-5.06L404.37-5.06Q405.65-5.01 407.37-5.01L407.37-5.01L407.37-5.01Q409.09-5.01 411.38-5.01L411.38-5.01L411.38-5.01Q418.01-5.01 421.41-2.23L421.41-2.23L421.41-2.23Q424.80 0.55 424.80 6.41L424.80 6.41L424.80 6.41Q424.80 8.79 424.04 10.64L424.04 10.64L424.04 10.64Q423.28 12.49 421.94 13.85L421.94 13.85L421.94 13.85Q420.60 15.21 418.77 16.12L418.77 16.12L418.77 16.12Q416.95 17.03 414.82 17.61L414.82 17.61L414.82 17.61Q412.70 18.18 410.38 18.42L410.38 18.42L410.38 18.42Q408.07 18.65 405.73 18.65L405.73 18.65L405.73 18.65Q403.39 18.65 401.04 18.39L401.04 18.39L401.04 18.39Q398.68 18.14 396.43 17.76L396.43 17.76L396.43 17.76Q394.18 17.37 392.20 16.89L392.20 16.89L392.20 16.89Q390.23 16.40 388.70 15.93L388.70 15.93L388.70 15.93Q389.29 14.49 390.03 13.04L390.03 13.04L390.03 13.04Q390.78 11.60 391.63 10.32L391.63 10.32L391.63 10.32Q394.30 11.09 398.00 11.81L398.00 11.81L398.00 11.81Q401.70 12.53 406.20 12.53L406.20 12.53L406.20 12.53Q408.24 12.53 410.21 12.28L410.21 12.28L410.21 12.28Q412.19 12.02 413.78 11.32L413.78 11.32L413.78 11.32Q415.37 10.62 416.35 9.45L416.35 9.45L416.35 9.45Q417.33 8.28 417.33 6.41L417.33 6.41L417.33 6.41Q417.33 4.46 416.63 3.40L416.63 3.40L416.63 3.40Q415.93 2.34 414.74 1.83L414.74 1.83L414.74 1.83Q413.55 1.32 411.93 1.23L411.93 1.23L411.93 1.23Q410.32 1.15 408.53 1.15L408.53 1.15L402.97 1.15L402.97 1.15Q400.46 1.15 398.25 0.76L398.25 0.76L398.25 0.76Q396.05 0.38 394.39-0.53L394.39-0.53L394.39-0.53Q392.73-1.44 391.78-2.93L391.78-2.93L391.78-2.93Q390.82-4.42 390.82-6.58L390.82-6.58L390.82-6.58Q390.82-8.67 391.58-10.90L391.58-10.90L391.58-10.90Q392.35-13.13 393.58-15.42L393.58-15.42L393.58-15.42Q390.78-17.46 389.27-20.82L389.27-20.82L389.27-20.82Q387.76-24.17 387.76-28.55L387.76-28.55L387.76-28.55Q387.76-32.54 389.01-35.62L389.01-35.62L389.01-35.62Q390.27-38.70 392.56-40.87L392.56-40.87L392.56-40.87Q394.86-43.03 398.04-44.09L398.04-44.09L398.04-44.09Q401.23-45.16 405.22-45.16L405.22-45.16L405.22-45.16Q408.96-45.16 412.10-44.18L412.10-44.18ZM405.22-39.29L405.22-39.29L405.22-39.29Q402.54-39.29 400.63-38.49L400.63-38.49L400.63-38.49Q398.72-37.68 397.51-36.26L397.51-36.26L397.51-36.26Q396.30-34.83 395.73-32.86L395.73-32.86L395.73-32.86Q395.15-30.88 395.15-28.55L395.15-28.55L395.15-28.55Q395.15-26.17 395.73-24.21L395.73-24.21L395.73-24.21Q396.30-22.26 397.53-20.84L397.53-20.84L397.53-20.84Q398.76-19.41 400.65-18.63L400.65-18.63L400.65-18.63Q402.54-17.84 405.22-17.84L405.22-17.84L405.22-17.84Q407.90-17.84 409.81-18.63L409.81-18.63L409.81-18.63Q411.72-19.41 412.93-20.84L412.93-20.84L412.93-20.84Q414.14-22.26 414.72-24.24L414.72-24.24L414.72-24.24Q415.29-26.21 415.29-28.55L415.29-28.55L415.29-28.55Q415.29-30.88 414.72-32.86L414.72-32.86L414.72-32.86Q414.14-34.83 412.93-36.26L412.93-36.26L412.93-36.26Q411.72-37.68 409.81-38.49L409.81-38.49L409.81-38.49Q407.90-39.29 405.22-39.29ZM438.57 0L438.57-61.17L445.88-61.17L445.88-34.54L445.88-34.54Q448.72-39.38 452.33-42.10L452.33-42.10L452.33-42.10Q456.45-45.16 460.53-45.16L460.53-45.16L460.53-45.16Q466.65-45.16 470.05-42.10L470.05-42.10L470.05-42.10Q472.98-39.46 474.08-34.15L474.08-34.15L474.08-34.15Q474.93-30.12 474.93-23.28L474.93-23.28L474.93 0L467.63 0L467.63-25.32L467.63-25.32Q467.63-27.91 467.50-29.59L467.50-29.59L467.50-29.59Q467.37-31.27 466.88-33.11L466.88-33.11L466.88-33.11Q466.39-34.96 465.48-36.00L465.48-36.00L465.48-36.00Q464.57-37.04 462.93-37.72L462.93-37.72L462.93-37.72Q461.30-38.40 458.96-38.40L458.96-38.40L458.96-38.40Q454.92-38.40 451.19-34.58L451.19-34.58L451.19-34.58Q448.81-32.16 445.88-27.19L445.88-27.19L445.88 0L438.57 0ZM491.41-44.18L491.41-54.29L498.72-54.29L498.72-44.18L513.59-44.18L513.59-38.02L498.72-38.02L498.72-12.66L498.72-12.66Q498.72-10.11 498.87-8.77L498.87-8.77L498.87-8.77Q499.02-7.43 499.61-6.67L499.61-6.67L499.61-6.67Q500.72-5.14 504.07-5.14L504.07-5.14L504.07-5.14Q505.94-5.14 507.68-5.52L507.68-5.52L507.68-5.52Q509.47-5.90 510.96-6.37L510.96-6.37L510.96-6.37Q512.14-3.78 513.12-0.68L513.12-0.68L513.12-0.68Q508.11 1.02 503.01 1.02L503.01 1.02L503.01 1.02Q499.32 1.02 497.09 0.19L497.09 0.19L497.09 0.19Q494.85-0.64 493.58-2.51L493.58-2.51L493.58-2.51Q492.26-4.46 491.84-7.18L491.84-7.18L491.84-7.18Q491.41-9.90 491.41-14.70L491.41-14.70L491.41-38.02L485.04-38.02L485.04-44.18L491.41-44.18ZM588.74-8.28L590.73-1.74L590.73-1.74Q586.78-0.51 582.39 0.25L582.39 0.25L582.39 0.25Q577.99 1.02 572.72 1.02L572.72 1.02L572.72 1.02Q559.72 1.02 553.10-6.75L553.10-6.75L553.10-6.75Q546.47-14.53 546.47-29.65L546.47-29.65L546.47-29.65Q546.47-45.71 553.10-53.87L553.10-53.87L553.10-53.87Q559.72-62.02 572.72-62.02L572.72-62.02L572.72-62.02Q577.65-62.02 581.58-61.17L581.58-61.17L581.58-61.17Q585.51-60.32 589.16-58.96L589.16-58.96L586.95-52.68L586.95-52.68Q585.21-53.31 583.51-53.82L583.51-53.82L583.51-53.82Q581.81-54.33 580.09-54.67L580.09-54.67L580.09-54.67Q578.37-55.01 576.54-55.18L576.54-55.18L576.54-55.18Q574.72-55.35 572.72-55.35L572.72-55.35L572.72-55.35Q568.01-55.35 564.61-53.67L564.61-53.67L564.61-53.67Q561.21-52.00 559.00-48.79L559.00-48.79L559.00-48.79Q556.79-45.58 555.73-40.97L555.73-40.97L555.73-40.97Q554.67-36.36 554.67-30.50L554.67-30.50L554.67-30.50Q554.67-24.47 555.73-19.84L555.73-19.84L555.73-19.84Q556.79-15.21 559.00-12.04L559.00-12.04L559.00-12.04Q561.21-8.88 564.61-7.26L564.61-7.26L564.61-7.26Q568.01-5.65 572.72-5.65L572.72-5.65L572.72-5.65Q577.05-5.65 580.96-6.37L580.96-6.37L580.96-6.37Q584.87-7.09 588.74-8.28L588.74-8.28ZM607.47-61.09L607.47-17.16L607.47-17.16Q607.47-13.68 607.56-11.32L607.56-11.32L607.56-11.32Q607.64-8.96 607.77-7.18L607.77-7.18L607.77-7.18Q607.90-5.40 608.17-3.95L608.17-3.95L608.17-3.95Q608.45-2.51 608.87-0.76L608.87-0.76L608.87-0.76Q607.09-0.30 605.30 0.11L605.30 0.11L605.30 0.11Q603.52 0.51 601.74 0.81L601.74 0.81L601.74 0.81Q600.89-1.95 600.53-4.25L600.53-4.25L600.53-4.25Q600.16-6.54 600.16-8.75L600.16-8.75L600.16-61.09L607.47-61.09ZM658.06-0.76L658.06-0.76L651.01 0.81L651.01 0.81Q650.21-1.74 649.87-4.12L649.87-4.12L649.87-4.12Q649.70-5.23 649.44-8.62L649.44-8.62L648.55-8.62L648.55-8.62Q646.21-4.33 642.77-1.78L642.77-1.78L642.77-1.78Q638.99 1.02 634.79 1.02L634.79 1.02L634.79 1.02Q628.46 1.02 625.14-2.04L625.14-2.04L625.14-2.04Q622.30-4.63 621.19-9.98L621.19-9.98L621.19-9.98Q620.47-13.64 620.47-20.86L620.47-20.86L620.47-44.18L627.78-44.18L627.78-18.82L627.78-18.82Q627.78-12.49 629.01-9.77L629.01-9.77L629.01-9.77Q630.83-5.73 636.36-5.73L636.36-5.73L636.36-5.73Q640.27-5.73 644.00-9.47L644.00-9.47L644.00-9.47Q646.51-11.98 649.36-16.82L649.36-16.82L649.36-44.18L656.66-44.18L656.66-16.91L656.66-16.91Q656.66-11.26 656.96-7.09L656.96-7.09L656.96-7.09Q657.13-4.50 658.06-0.76ZM671.06-0.34L671.06-61.17L678.37-61.17L678.37-35.73L679.26-35.64L679.26-35.64Q681.26-40.06 683.98-42.35L683.98-42.35L683.98-42.35Q687.12-45.16 691.58-45.16L691.58-45.16L691.58-45.16Q699.36-45.16 703.48-38.61L703.48-38.61L703.48-38.61Q707.17-32.54 707.17-22.94L707.17-22.94L707.17-22.94Q707.17-11.26 701.61-4.93L701.61-4.93L701.61-4.93Q696.30 1.02 685.89 1.02L685.89 1.02L685.89 1.02Q680.20 1.02 671.06-0.34L671.06-0.34ZM677.95-26.08L677.95-26.08L677.95-6.03L677.95-6.03Q681.85-5.23 685.89-5.23L685.89-5.23L685.89-5.23Q692.77-5.23 696.21-9.26L696.21-9.26L696.21-9.26Q699.78-13.42 699.78-21.62L699.78-21.62L699.78-21.62Q699.78-29.06 698.17-33.09L698.17-33.09L698.17-33.09Q696.04-38.40 690.94-38.40L690.94-38.40L690.94-38.40Q686.48-38.40 683.09-34.66L683.09-34.66L683.09-34.66Q680.71-32.12 677.95-26.08Z" fill="#5b5c86"></path></g></g><style>text {
  font-size: 64px;
  font-family: Arial Black;
  dominant-baseline: central;
  text-anchor: middle;
}</style></svg>